<svg width="96" height="16" viewBox="0 0 96 16" fill="none" xmlns="http://www.w3.org/2000/svg">
<g clip-path="url(#clip0_492_251)">
<path d="M3.61163 15.443C3.22563 15.641 2.78763 15.294 2.86563 14.851L3.69563 10.121L0.17263 6.76501C-0.15637 6.45101 0.01463 5.87701 0.45563 5.81501L5.35363 5.11901L7.53763 0.792012C7.73463 0.402012 8.26763 0.402012 8.46463 0.792012L10.6486 5.11901L15.5466 5.81501C15.9876 5.87701 16.1586 6.45101 15.8286 6.76501L12.3066 10.121L13.1366 14.851C13.2146 15.294 12.7766 15.641 12.3906 15.443L7.99963 13.187L3.61063 15.443H3.61163Z" fill="#4DC1BC"/>
</g>
<g clip-path="url(#clip1_492_251)">
<path d="M23.6116 15.443C23.2256 15.641 22.7876 15.294 22.8656 14.851L23.6956 10.121L20.1726 6.76501C19.8436 6.45101 20.0146 5.87701 20.4556 5.81501L25.3536 5.11901L27.5376 0.792012C27.7346 0.402012 28.2676 0.402012 28.4646 0.792012L30.6486 5.11901L35.5466 5.81501C35.9876 5.87701 36.1586 6.45101 35.8286 6.76501L32.3066 10.121L33.1366 14.851C33.2146 15.294 32.7766 15.641 32.3906 15.443L27.9996 13.187L23.6106 15.443H23.6116Z" fill="#4DC1BC"/>
</g>
<g clip-path="url(#clip2_492_251)">
<path d="M43.6116 15.443C43.2256 15.641 42.7876 15.294 42.8656 14.851L43.6956 10.121L40.1726 6.76501C39.8436 6.45101 40.0146 5.87701 40.4556 5.81501L45.3536 5.11901L47.5376 0.792012C47.7346 0.402012 48.2676 0.402012 48.4646 0.792012L50.6486 5.11901L55.5466 5.81501C55.9876 5.87701 56.1586 6.45101 55.8286 6.76501L52.3066 10.121L53.1366 14.851C53.2146 15.294 52.7766 15.641 52.3906 15.443L47.9996 13.187L43.6106 15.443H43.6116Z" fill="#4DC1BC"/>
</g>
<g clip-path="url(#clip3_492_251)">
<path d="M63.6116 15.443C63.2256 15.641 62.7876 15.294 62.8656 14.851L63.6956 10.121L60.1726 6.76501C59.8436 6.45101 60.0146 5.87701 60.4556 5.81501L65.3536 5.11901L67.5376 0.792012C67.7346 0.402012 68.2676 0.402012 68.4646 0.792012L70.6486 5.11901L75.5466 5.81501C75.9876 5.87701 76.1586 6.45101 75.8286 6.76501L72.3066 10.121L73.1366 14.851C73.2146 15.294 72.7766 15.641 72.3906 15.443L67.9996 13.187L63.6106 15.443H63.6116Z" fill="#4DC1BC"/>
</g>
<g clip-path="url(#clip4_492_251)">
<path d="M85.354 5.119L87.538 0.792C87.5799 0.704954 87.6455 0.631433 87.7272 0.57981C87.8088 0.528186 87.9034 0.500533 88 0.5C88.183 0.5 88.366 0.597 88.465 0.792L90.649 5.119L95.547 5.815C95.6691 5.83419 95.7808 5.89491 95.8633 5.98691C95.9459 6.0789 95.9941 6.19655 96 6.32C96.007 6.40219 95.9953 6.48489 95.9659 6.56194C95.9364 6.63899 95.89 6.7084 95.83 6.765L92.307 10.121L93.137 14.851C93.215 15.294 92.777 15.641 92.391 15.443L88 13.187L83.611 15.443C83.5651 15.4668 83.5159 15.4837 83.465 15.493C83.123 15.553 82.797 15.239 82.865 14.851L83.695 10.121L80.173 6.765C80.1182 6.7132 80.0747 6.65069 80.0451 6.58137C80.0155 6.51204 80.0005 6.43737 80.001 6.362C80.001 6.25544 80.0304 6.15095 80.086 6.06C80.1254 5.99407 80.1791 5.93783 80.2431 5.89542C80.3072 5.85302 80.3799 5.82553 80.456 5.815L85.354 5.119ZM88 12.027C88.0807 12.0267 88.1603 12.0459 88.232 12.083L91.918 13.977L91.224 10.02C91.2076 9.929 91.2138 9.83536 91.2421 9.74731C91.2703 9.65926 91.3197 9.57949 91.386 9.515L94.293 6.745L90.241 6.169C90.1571 6.15633 90.0775 6.12351 90.0091 6.07335C89.9406 6.02319 89.8853 5.95719 89.848 5.881L88.001 2.223L88 2.226V12.026V12.027Z" fill="#4DC1BC"/>
</g>
<defs>
<clipPath id="clip0_492_251">
<rect width="16" height="16" fill="white"/>
</clipPath>
<clipPath id="clip1_492_251">
<rect width="16" height="16" fill="white" transform="translate(20)"/>
</clipPath>
<clipPath id="clip2_492_251">
<rect width="16" height="16" fill="white" transform="translate(40)"/>
</clipPath>
<clipPath id="clip3_492_251">
<rect width="16" height="16" fill="white" transform="translate(60)"/>
</clipPath>
<clipPath id="clip4_492_251">
<rect width="16" height="16" fill="white" transform="translate(80)"/>
</clipPath>
</defs>
</svg>
