<svg width="24" height="25" viewBox="0 0 24 25" fill="none" xmlns="http://www.w3.org/2000/svg">
<path fill-rule="evenodd" clip-rule="evenodd" d="M6 12.5152C6 12.3163 6.07902 12.1256 6.21967 11.9849C6.36032 11.8442 6.55109 11.7652 6.75 11.7652H15.4395L12.219 8.54623C12.0782 8.4054 11.9991 8.21439 11.9991 8.01523C11.9991 7.81607 12.0782 7.62506 12.219 7.48423C12.3598 7.3434 12.5508 7.26428 12.75 7.26428C12.9492 7.26428 13.1402 7.3434 13.281 7.48423L17.781 11.9842C17.8508 12.0539 17.9063 12.1367 17.9441 12.2278C17.9819 12.3189 18.0013 12.4166 18.0013 12.5152C18.0013 12.6139 17.9819 12.7116 17.9441 12.8027C17.9063 12.8938 17.8508 12.9766 17.781 13.0462L13.281 17.5462C13.1402 17.6871 12.9492 17.7662 12.75 17.7662C12.5508 17.7662 12.3598 17.6871 12.219 17.5462C12.0782 17.4054 11.9991 17.2144 11.9991 17.0152C11.9991 16.8161 12.0782 16.6251 12.219 16.4842L15.4395 13.2652H6.75C6.55109 13.2652 6.36032 13.1862 6.21967 13.0456C6.07902 12.9049 6 12.7141 6 12.5152Z" fill="#0778E1"/>
</svg>
