<svg width="513" height="447" viewBox="0 0 513 447" fill="none" xmlns="http://www.w3.org/2000/svg">
<path d="M0.244965 113.316C-2.02725 84.5152 11.5915 55.0819 36.2764 35.4941C55.2069 20.4763 82.1996 7.77343 106.353 -3.8743e-06H512V447C497.774 441.901 487.876 445.497 479.484 425.855C472.799 386.882 445.179 346.313 398.524 334.572C326.83 316.527 210.443 372.675 168.731 295.676C153.238 267.095 154.817 237.779 120.91 219.044C106.864 211.285 91.1056 206.186 76.0999 199.911C35.1108 182.792 3.46155 153.947 0.244965 113.316Z" fill="#B7F5F5"/>
<path opacity="0.5" d="M213.724 177.977C182.985 147.239 169.401 89.5437 181.253 50.1226C181.359 13.4689 240.901 -1.99351e-07 240.901 -1.99351e-07L360.141 -5.7134e-07L512.141 -1.04553e-06L512.141 198C474.316 183.362 462.571 186.087 430.269 194.558C397.967 203.03 373.077 216.743 339.571 220.229C293.115 225.046 244.441 208.716 213.724 177.977Z" fill="#00C7C5"/>
</svg>
