<svg width="193" height="204" viewBox="0 0 193 204" fill="none" xmlns="http://www.w3.org/2000/svg">
<path d="M124.179 115.372C129.483 117.765 134.588 120.581 139.444 123.792C139.444 123.792 133.106 133.348 129.451 167.47C127.843 182.486 127.934 153.076 127.317 178.065C127.317 178.065 123.325 184.5 98.0012 184.5C72.6769 184.5 68.6849 178.065 68.6849 178.065C68.0507 152.387 68.1891 182.889 66.5233 167.711C62.8843 134.555 56.5581 123.792 56.5581 123.792C61.4142 120.581 66.5187 117.765 71.8228 115.372H124.179Z" fill="#E9E5EA"/>
<path d="M82.7221 132.11L73.6675 148.322L93.4046 168.733L82.7221 132.11Z" fill="white"/>
<path d="M74.8298 115.373L68.1624 139.434L84.9115 143.962L74.8298 115.373Z" fill="white"/>
<path d="M127.317 178.065C127.951 152.387 127.785 182.648 129.451 167.47C133.09 134.314 139.444 123.792 139.444 123.792C134.588 120.581 129.483 117.765 124.179 115.372H98.001V184.5C123.325 184.5 127.317 178.065 127.317 178.065Z" fill="#CECBCF"/>
<path d="M113.047 132.11L122.102 148.322L102.365 168.733L113.047 132.11Z" fill="white"/>
<path d="M119.522 113.61L126.064 137.218L109.63 141.661L119.522 113.61Z" fill="white"/>
<path d="M118.796 121.347L97.7692 181.464L77.1584 121.347L97.7692 112.919L118.796 121.347Z" fill="#5D95D6"/>
<path d="M105.371 115.966L97.8847 123.878L90.3755 115.942L77.1584 121.347L79.4029 127.894L86.0179 136.611L92.9172 129.35C93.0031 130.625 93.5609 131.821 94.481 132.704C95.401 133.587 96.6168 134.092 97.8892 134.12C99.1616 134.149 100.399 133.698 101.357 132.858C102.315 132.017 102.926 130.847 103.068 129.577L109.751 136.611L116.625 127.553L118.796 121.347L105.371 115.966Z" fill="#6777A1"/>
<path d="M97.1606 164.296L98.6601 174.426L100.518 165.054L100.013 134.136L97.5901 134.128L97.1606 164.296Z" fill="#4B77AA"/>
<path d="M128.226 126.376C127.967 118.432 124.647 110.9 118.966 105.364C113.285 99.8283 105.686 96.7215 97.7689 96.6978H97.7688C89.6947 96.7215 81.958 99.9518 76.2487 105.683C70.5394 111.414 67.3215 119.181 67.2979 127.286V141.238" stroke="#585759" stroke-width="2" stroke-linecap="round" stroke-linejoin="round"/>
<path d="M116.466 116.916L98.0011 126.468L79.0713 116.916L85.2574 81.2461H110.28L116.466 116.916Z" fill="#FFCC92"/>
<path d="M97.8851 119.814L81.7838 101.277L79.0713 116.916L98.0011 126.468L116.466 116.916L113.755 101.281L97.8851 119.814Z" fill="#E8B376"/>
<path d="M103.102 126.468C103.102 127.481 102.803 128.471 102.242 129.313C101.682 130.156 100.885 130.812 99.9531 131.2C99.021 131.587 97.9953 131.689 97.0057 131.491C96.0162 131.293 95.1072 130.806 94.3938 130.089C93.6804 129.373 93.1945 128.461 92.9977 127.467C92.8008 126.474 92.9019 125.444 93.288 124.509C93.6741 123.573 94.3279 122.773 95.1668 122.21C96.0057 121.648 96.992 121.347 98.001 121.347C99.3539 121.347 100.651 121.887 101.608 122.847C102.565 123.808 103.102 125.11 103.102 126.468Z" fill="#5D95D6"/>
<path d="M110.28 81.246H85.2576L82.2642 98.5068C84.1476 100.777 86.1695 102.928 88.3182 104.947C90.8179 107.045 96.7381 106.908 96.7381 106.908C96.7381 106.908 102.658 107.045 105.158 104.947C107.918 102.297 110.513 99.4777 112.927 96.5063L110.28 81.246Z" fill="#E8B376"/>
<path d="M74.7727 60.6971C75.8522 66.2087 73.8521 71.2442 70.3052 71.9443C66.7584 72.6444 62.6033 66.6782 61.5237 61.1668C60.4442 55.6552 62.8489 52.6855 66.3958 51.9853C69.9426 51.2852 73.6931 55.1856 74.7727 60.6971Z" fill="#E8B376"/>
<path d="M121.694 60.6971C120.614 66.2087 122.615 71.2442 126.161 71.9443C129.708 72.6444 133.863 66.6782 134.943 61.1668C136.022 55.6552 133.618 52.6855 130.071 51.9853C126.524 51.2852 122.774 55.1856 121.694 60.6971Z" fill="#E8B376"/>
<path d="M98.0012 19.9476C114.87 19.9476 128.302 36.2051 128.302 56.2596C128.302 56.2596 125.907 73.5676 121.911 82.6824C121.911 82.6824 110.185 97.324 106.421 100.483C103.921 102.581 98.0012 102.444 98.0012 102.444C98.0012 102.444 92.081 102.581 89.5813 100.483C85.8171 97.324 74.0909 82.6824 74.0909 82.6824C70.0954 73.5676 67.7002 56.2596 67.7002 56.2596C67.7002 36.2051 81.1327 19.9476 98.0012 19.9476Z" fill="#FFCC92"/>
<path d="M74.4993 27.8723C70.6336 33.4064 68.149 39.7918 67.2546 46.4909C66.3602 53.1901 67.0821 60.0069 69.3596 66.3676C69.3596 66.3676 70.6901 48.3773 84.1858 39.5894L74.4993 27.8723Z" fill="#2A333D"/>
<path d="M125.017 65.5263C125.017 65.5263 123.712 47.8744 110.47 39.2518C110.47 39.2518 96.1602 58.6525 73.2552 41.4074C73.2552 41.4074 64.4519 38.7228 70.7443 28.1144C79.8243 12.8064 106.932 8.71365 119.974 27.7551C123.767 33.1851 126.205 39.4504 127.083 46.0235C127.961 52.5967 127.252 59.2853 125.017 65.5263Z" fill="#3F4C5B"/>
<path d="M81.3364 103.857L98.001 121.468L86.0176 134.078L71.8223 115.373L81.3364 103.857Z" fill="#8DB4E0"/>
<path d="M114.433 103.857L97.7695 121.468L109.752 134.078L123.947 115.373L114.433 103.857Z" fill="#8DB4E0"/>
<path d="M128.71 148.414L132.295 140.739C133.572 138.002 133.713 134.868 132.689 132.026C131.665 129.183 129.558 126.866 126.832 125.583C124.106 124.299 120.984 124.155 118.152 125.182C115.32 126.209 113.011 128.323 111.731 131.059L109.065 136.767" stroke="#585759" stroke-width="2" stroke-linecap="round" stroke-linejoin="round"/>
<path d="M106.471 140.543C106.218 140.375 106.04 140.113 105.978 139.814C105.916 139.515 105.975 139.204 106.14 138.948L108.106 135.937C108.273 135.682 108.534 135.504 108.832 135.442C109.129 135.38 109.439 135.439 109.694 135.605C109.948 135.773 110.125 136.035 110.187 136.334C110.249 136.633 110.191 136.944 110.025 137.2L108.06 140.211C107.893 140.465 107.632 140.643 107.334 140.706C107.036 140.768 106.726 140.709 106.471 140.543Z" fill="#B9B6BA"/>
<path d="M109.039 136.608L110.801 137.767C111.187 138.023 111.457 138.421 111.551 138.876C111.646 139.331 111.557 139.804 111.305 140.193V140.193C111.05 140.581 110.653 140.852 110.2 140.946C109.747 141.041 109.276 140.952 108.888 140.699L107.126 139.54L109.039 136.608Z" fill="#848285"/>
<path d="M129.378 147.319C129.632 147.487 129.809 147.749 129.871 148.048C129.933 148.347 129.875 148.658 129.709 148.914L127.744 151.925C127.577 152.18 127.315 152.358 127.018 152.42C126.72 152.482 126.41 152.424 126.155 152.257C125.901 152.089 125.724 151.827 125.662 151.528C125.6 151.229 125.658 150.918 125.824 150.662L127.789 147.651C127.957 147.397 128.218 147.219 128.516 147.156C128.813 147.094 129.123 147.153 129.378 147.319Z" fill="#B9B6BA"/>
<path d="M126.81 151.254L125.048 150.095C124.662 149.839 124.392 149.441 124.298 148.986C124.203 148.531 124.292 148.058 124.544 147.669C124.799 147.281 125.196 147.011 125.649 146.916C126.102 146.821 126.573 146.91 126.961 147.164L128.723 148.323L126.81 151.254Z" fill="#848285"/>
<path d="M56.6829 124.343C56.6829 124.343 43 129.787 43 149.07C43 175.238 46.5773 186.33 50.4805 189.828C55.7699 194.569 61.5691 195.315 66.09 182.692C69.7297 172.529 61.9019 130.129 56.6829 124.343Z" fill="white"/>
<path d="M74.5169 144.994C75.0849 141.472 72.7013 138.155 69.1929 137.585C65.6846 137.015 62.3801 139.407 61.8121 142.929C61.2441 146.451 63.6278 149.768 67.1361 150.339C70.6444 150.909 73.9489 148.516 74.5169 144.994Z" fill="#848285"/>
<path d="M68.2875 147.228C70.3824 147.228 72.0806 145.805 72.0806 144.05C72.0806 142.294 70.3824 140.871 68.2875 140.871C66.1926 140.871 64.4944 142.294 64.4944 144.05C64.4944 145.805 66.1926 147.228 68.2875 147.228Z" fill="#B9B6BA"/>
<path d="M139.447 124.343C139.447 124.343 153 129.807 153 149.16C153 175.424 149.457 186.556 145.591 190.067C140.352 194.825 134.85 194.252 130.529 184.944C126.661 176.61 130.166 139.851 139.447 124.343Z" fill="white"/>
<path d="M56.908 193C56.908 193 96.183 193 122.655 175.459L117.647 161.214C117.647 161.214 85.6333 161.602 65.2362 167.389C65.2362 167.389 69.6538 188.378 56.908 193Z" fill="white"/>
<path d="M118.996 165.735C114.405 164.587 109.682 163.49 105.152 162.486C95.9495 163.016 83.1693 164.115 72.0806 166.37C80.9765 174.231 91.1235 180.647 102.13 185.371C109.36 183.046 116.257 179.841 122.655 175.832L118.996 165.735Z" fill="#E9E5EA"/>
<path d="M83.4597 164.415L82.5451 157.873C82.5451 157.873 73.1236 155.382 68.6499 161.836C67.4782 163.538 66.9143 165.548 67.0403 167.572C72.4368 166.194 77.921 165.14 83.4597 164.415Z" fill="#FFCC92"/>
<path d="M123.144 159.868C122.532 159.72 122.014 159.368 121.702 158.89C121.389 158.412 121.309 157.847 121.477 157.317L123.008 152.558C123.18 152.03 123.587 151.581 124.14 151.311C124.693 151.042 125.347 150.972 125.96 151.117H125.96C126.571 151.266 127.09 151.618 127.402 152.096C127.714 152.574 127.795 153.139 127.627 153.668L126.095 158.428C125.923 158.956 125.516 159.404 124.963 159.674C124.41 159.944 123.756 160.014 123.144 159.868Z" fill="#FFCC92"/>
<path d="M126.218 170.503V170.503C124.434 171.44 122.348 171.64 120.415 171.06C118.482 170.479 116.86 169.164 115.903 167.403C113.927 163.742 115.62 160.737 119.318 158.781C123.016 156.825 127.374 156.63 129.35 160.29V160.291C130.296 162.057 130.498 164.123 129.912 166.036C129.325 167.95 127.997 169.556 126.218 170.503Z" fill="#FFCC92"/>
<path d="M117.848 161.093C117.557 160.502 117.518 159.823 117.738 159.204C117.959 158.585 118.422 158.076 119.025 157.789L134.189 150.016C134.795 149.732 135.491 149.694 136.126 149.909C136.76 150.124 137.282 150.575 137.576 151.164C137.867 151.755 137.907 152.434 137.686 153.053C137.466 153.672 137.003 154.181 136.399 154.468L121.235 162.241C120.63 162.525 119.934 162.563 119.299 162.348C118.664 162.133 118.143 161.682 117.848 161.093Z" fill="#FFCC92"/>
<path d="M122.917 163.523C122.613 162.885 122.572 162.151 122.802 161.482C123.032 160.814 123.514 160.264 124.143 159.953L134.037 155.122C134.668 154.815 135.393 154.773 136.054 155.006C136.716 155.238 137.259 155.726 137.566 156.362C137.869 157.001 137.91 157.734 137.681 158.403C137.451 159.072 136.969 159.622 136.339 159.932L126.446 164.764C125.815 165.071 125.089 165.113 124.428 164.88C123.767 164.648 123.223 164.16 122.917 163.523Z" fill="#FFCC92"/>
<path d="M121.703 167.553C121.385 166.968 121.306 166.278 121.484 165.633C121.662 164.989 122.082 164.443 122.652 164.114L131.624 158.991C132.196 158.665 132.871 158.585 133.501 158.767C134.131 158.949 134.665 159.378 134.987 159.961C135.305 160.547 135.384 161.237 135.206 161.881C135.028 162.526 134.608 163.072 134.038 163.401L125.066 168.524C124.494 168.849 123.819 168.93 123.189 168.748C122.559 168.566 122.025 168.136 121.703 167.553Z" fill="#FFCC92"/>
<path d="M119.306 171.512C118.925 170.934 118.781 170.224 118.906 169.538C119.031 168.851 119.415 168.244 119.974 167.848L128.769 161.671C129.33 161.279 130.019 161.131 130.685 161.26C131.352 161.389 131.942 161.784 132.326 162.36V162.36C132.708 162.937 132.851 163.647 132.726 164.334C132.601 165.02 132.217 165.628 131.658 166.024L122.864 172.2C122.303 172.593 121.613 172.741 120.947 172.612C120.28 172.483 119.69 172.087 119.306 171.512Z" fill="#FFCC92"/>
<path d="M139.092 192.993C139.092 192.993 107.483 194.16 75.8735 165.254L82.8791 156.129C82.8791 156.129 110.411 161.323 130.736 167.114C130.736 167.114 126.391 188.37 139.092 192.993Z" fill="white"/>
</svg>
