<svg width="15" height="15" viewBox="0 0 15 15" fill="none" xmlns="http://www.w3.org/2000/svg">
<path d="M5.5 7C4.83696 7 4.20107 6.73661 3.73223 6.26777C3.26339 5.79893 3 5.16304 3 4.5V2.5C3 2.36739 3.05268 2.24021 3.14645 2.14645C3.24021 2.05268 3.36739 2 3.5 2H4C4.13261 2 4.25979 1.94732 4.35355 1.85355C4.44732 1.75979 4.5 1.63261 4.5 1.5C4.5 1.36739 4.44732 1.24021 4.35355 1.14645C4.25979 1.05268 4.13261 1 4 1H3.5C3.10218 1 2.72064 1.15804 2.43934 1.43934C2.15804 1.72064 2 2.10218 2 2.5V4.5C2.00064 5.06487 2.13839 5.62114 2.4014 6.12104C2.66441 6.62094 3.04484 7.04953 3.51 7.37C3.95691 7.76401 4.31935 8.2445 4.57544 8.78246C4.83153 9.32041 4.97596 9.90468 5 10.5C5 11.4283 5.36875 12.3185 6.02513 12.9749C6.6815 13.6313 7.57174 14 8.5 14C9.42826 14 10.3185 13.6313 10.9749 12.9749C11.6313 12.3185 12 11.4283 12 10.5V9.93C12.4713 9.8083 12.8821 9.51889 13.1553 9.116C13.4285 8.71311 13.5454 8.22441 13.4841 7.7415C13.4227 7.25859 13.1874 6.81463 12.8221 6.49284C12.4569 6.17104 11.9868 5.99351 11.5 5.99351C11.0132 5.99351 10.5431 6.17104 10.1779 6.49284C9.81263 6.81463 9.57728 7.25859 9.51594 7.7415C9.4546 8.22441 9.57149 8.71311 9.8447 9.116C10.1179 9.51889 10.5287 9.8083 11 9.93V10.5C11 11.163 10.7366 11.7989 10.2678 12.2678C9.79893 12.7366 9.16304 13 8.5 13C7.83696 13 7.20107 12.7366 6.73223 12.2678C6.26339 11.7989 6 11.163 6 10.5C6.02531 9.90395 6.1713 9.31923 6.42912 8.78123C6.68695 8.24322 7.05126 7.76313 7.5 7.37C7.96331 7.04842 8.34179 6.61934 8.60303 6.11951C8.86426 5.61968 9.00048 5.06398 9 4.5V2.5C9 2.10218 8.84196 1.72064 8.56066 1.43934C8.27936 1.15804 7.89782 1 7.5 1H7C6.86739 1 6.74021 1.05268 6.64645 1.14645C6.55268 1.24021 6.5 1.36739 6.5 1.5C6.5 1.63261 6.55268 1.75979 6.64645 1.85355C6.74021 1.94732 6.86739 2 7 2H7.5C7.63261 2 7.75979 2.05268 7.85355 2.14645C7.94732 2.24021 8 2.36739 8 2.5V4.5C8 4.8283 7.93534 5.15339 7.8097 5.45671C7.68406 5.76002 7.49991 6.03562 7.26777 6.26777C7.03562 6.49991 6.76002 6.68406 6.45671 6.8097C6.15339 6.93534 5.8283 7 5.5 7ZM11.5 9C11.2348 9 10.9804 8.89464 10.7929 8.70711C10.6054 8.51957 10.5 8.26522 10.5 8C10.5 7.73478 10.6054 7.48043 10.7929 7.29289C10.9804 7.10536 11.2348 7 11.5 7C11.7652 7 12.0196 7.10536 12.2071 7.29289C12.3946 7.48043 12.5 7.73478 12.5 8C12.5 8.26522 12.3946 8.51957 12.2071 8.70711C12.0196 8.89464 11.7652 9 11.5 9Z" fill="#4DC1BC"/>
</svg>
