<svg width="11" height="34" viewBox="0 0 11 34" fill="none" xmlns="http://www.w3.org/2000/svg">
<path fill-rule="evenodd" clip-rule="evenodd" d="M0.939943 0.882451C1.23632 0.73394 1.57956 0.709243 1.89415 0.813794C2.20874 0.918345 2.46891 1.14358 2.61744 1.43995L10.1174 16.44C10.2045 16.6138 10.2499 16.8055 10.2499 17C10.2499 17.1944 10.2045 17.3861 10.1174 17.56L2.61744 32.5599C2.54468 32.708 2.44333 32.8402 2.31924 32.9489C2.19515 33.0576 2.05077 33.1406 1.89442 33.1933C1.73807 33.2459 1.57286 33.2671 1.40829 33.2556C1.24373 33.244 1.08307 33.2 0.935589 33.1261C0.788104 33.0522 0.656706 32.9499 0.548973 32.8249C0.441239 32.7 0.359301 32.555 0.30788 32.3982C0.25646 32.2415 0.236575 32.0761 0.249372 31.9116C0.26217 31.7472 0.307396 31.5869 0.382443 31.4399L7.59994 17L0.382443 2.55995C0.233932 2.26357 0.209235 1.92033 0.313786 1.60574C0.418336 1.29115 0.643571 1.03098 0.939943 0.882451Z" fill="#8A8A8A"/>
</svg>
