<svg width="40" height="41" viewBox="0 0 40 41" fill="none" xmlns="http://www.w3.org/2000/svg">
<g opacity="0.3" clip-path="url(#clip0_110_214)">
<path d="M27.5 15.5151C27.5 17.5043 26.7098 19.4119 25.3033 20.8184C23.8968 22.225 21.9891 23.0151 20 23.0151C18.0109 23.0151 16.1032 22.225 14.6967 20.8184C13.2902 19.4119 12.5 17.5043 12.5 15.5151C12.5 13.526 13.2902 11.6184 14.6967 10.2118C16.1032 8.80531 18.0109 8.01514 20 8.01514C21.9891 8.01514 23.8968 8.80531 25.3033 10.2118C26.7098 11.6184 27.5 13.526 27.5 15.5151Z" fill="#333333"/>
<path fill-rule="evenodd" clip-rule="evenodd" d="M0 20.5151C0 15.2108 2.10714 10.1237 5.85786 6.373C9.60859 2.62227 14.6957 0.515137 20 0.515137C25.3043 0.515137 30.3914 2.62227 34.1421 6.373C37.8929 10.1237 40 15.2108 40 20.5151C40 25.8195 37.8929 30.9065 34.1421 34.6573C30.3914 38.408 25.3043 40.5151 20 40.5151C14.6957 40.5151 9.60859 38.408 5.85786 34.6573C2.10714 30.9065 0 25.8195 0 20.5151ZM20 3.01514C16.7044 3.01531 13.4759 3.94604 10.686 5.70021C7.8961 7.45437 5.65821 9.96066 4.22991 12.9306C2.80161 15.9006 2.24097 19.2135 2.6125 22.488C2.98403 25.7626 4.27263 28.8657 6.33 31.4401C8.105 28.5801 12.0125 25.5151 20 25.5151C27.9875 25.5151 31.8925 28.5776 33.67 31.4401C35.7274 28.8657 37.016 25.7626 37.3875 22.488C37.759 19.2135 37.1984 15.9006 35.7701 12.9306C34.3418 9.96066 32.1039 7.45437 29.314 5.70021C26.5241 3.94604 23.2956 3.01531 20 3.01514Z" fill="#333333"/>
</g>
<defs>
<clipPath id="clip0_110_214">
<rect width="40" height="40" fill="white" transform="translate(0 0.515137)"/>
</clipPath>
</defs>
</svg>
