<svg width="68" height="67" viewBox="0 0 68 67" fill="none" xmlns="http://www.w3.org/2000/svg">
<path d="M49.9099 17.5693C44.4531 12.2162 40.4005 6.28432 37.975 0.583231C37.9022 0.413245 37.7717 0.27323 37.6056 0.186975C37.4394 0.10072 37.248 0.0735467 37.0638 0.110072C36.8796 0.146597 36.7139 0.244568 36.595 0.387338C36.476 0.530108 36.4112 0.708869 36.4114 0.893248V30.8114H66.909C67.097 30.8116 67.2792 30.748 67.4247 30.6313C67.5703 30.5146 67.6701 30.3521 67.7073 30.1714C67.7446 29.9907 67.7169 29.8029 67.629 29.6399C67.541 29.477 67.3983 29.3489 67.225 29.2775C61.4135 26.8981 55.3668 22.9225 49.9099 17.5693Z" fill="#232C60"/>
<path d="M58.231 17.7533C62.9302 17.7533 66.7396 14.0163 66.7396 9.40637C66.7396 4.79648 62.9302 1.05942 58.231 1.05942C53.5318 1.05942 49.7224 4.79648 49.7224 9.40637C49.7224 14.0163 53.5318 17.7533 58.231 17.7533Z" fill="#232C60"/>
<path d="M18.2408 48.6367C23.6976 53.9899 27.7502 59.9218 30.1757 65.6228C30.2485 65.7928 30.379 65.9328 30.5452 66.0191C30.7113 66.1054 30.9027 66.1325 31.0869 66.096C31.2712 66.0595 31.4368 65.9615 31.5557 65.8187C31.6747 65.676 31.7395 65.4972 31.7393 65.3128V35.3947H1.24172C1.05377 35.3945 0.871542 35.4581 0.726007 35.5748C0.580472 35.6915 0.480604 35.854 0.443371 36.0347C0.406138 36.2154 0.433838 36.4032 0.521763 36.5662C0.609689 36.7291 0.752416 36.8572 0.925694 36.9286C6.73721 39.308 12.784 43.2836 18.2408 48.6367Z" fill="#232C60"/>
<path d="M10.0423 65.0263C14.7415 65.0263 18.5509 61.2893 18.5509 56.6794C18.5509 52.0695 14.7415 48.3324 10.0423 48.3324C5.34313 48.3324 1.53369 52.0695 1.53369 56.6794C1.53369 61.2893 5.34313 65.0263 10.0423 65.0263Z" fill="#232C60"/>
<path d="M50.0047 48.5438C55.4615 43.1906 61.5083 39.215 67.3198 36.8356C67.493 36.7642 67.6358 36.6361 67.7237 36.4732C67.8116 36.3102 67.8393 36.1224 67.8021 35.9417C67.7649 35.761 67.665 35.5985 67.5195 35.4818C67.3739 35.3651 67.1917 35.3015 67.0038 35.3017H36.5061V65.2198C36.5059 65.4042 36.5708 65.583 36.6897 65.7258C36.8086 65.8685 36.9743 65.9665 37.1585 66.003C37.3427 66.0395 37.5342 66.0124 37.7003 65.9261C37.8664 65.8399 37.997 65.6999 38.0698 65.5299C40.4952 59.8288 44.5478 53.8969 50.0047 48.5438Z" fill="#77B9E6"/>
<path d="M58.3272 65.0687C63.0264 65.0687 66.8358 61.3316 66.8358 56.7217C66.8358 52.1118 63.0264 48.3748 58.3272 48.3748C53.628 48.3748 49.8186 52.1118 49.8186 56.7217C49.8186 61.3316 53.628 65.0687 58.3272 65.0687Z" fill="#77B9E6"/>
<path d="M18.3355 17.4764C12.8787 22.8295 6.83194 26.8051 1.02042 29.1845C0.847143 29.2559 0.704415 29.384 0.61649 29.5469C0.528564 29.7099 0.500865 29.8977 0.538098 30.0784C0.57533 30.2591 0.675199 30.4216 0.820734 30.5383C0.966269 30.655 1.14849 30.7186 1.33644 30.7184H31.8341V0.800263C31.8343 0.615885 31.7694 0.437123 31.6505 0.294354C31.5316 0.151584 31.3659 0.0536137 31.1817 0.0170886C30.9975 -0.0194365 30.806 0.00773698 30.6399 0.0939919C30.4738 0.180247 30.3432 0.320262 30.2704 0.490248C27.845 6.19134 23.7924 12.1232 18.3355 17.4764Z" fill="#4DC1BC"/>
<path d="M10.192 17.8478C14.8911 17.8478 18.7006 14.1108 18.7006 9.50087C18.7006 4.89098 14.8911 1.15392 10.192 1.15392C5.49279 1.15392 1.68335 4.89098 1.68335 9.50087C1.68335 14.1108 5.49279 17.8478 10.192 17.8478Z" fill="#4DC1BC"/>
<path d="M27.6579 18.0011C27.4359 17.7791 27.1546 17.623 26.8463 17.5508C26.538 17.4786 26.2151 17.4932 25.9148 17.5929C25.6146 17.6926 25.3491 17.8733 25.1488 18.1144C24.9486 18.3555 24.8217 18.6471 24.7828 18.9557C24.7439 19.2643 24.7945 19.5775 24.9289 19.8591C25.0632 20.1408 25.2759 20.3796 25.5423 20.548C25.8088 20.7165 26.1183 20.8078 26.4353 20.8114C26.7523 20.8151 27.0639 20.7309 27.3343 20.5686L28.8418 22.0695C29.0678 22.2946 29.2465 22.5612 29.3676 22.854C29.4886 23.1468 29.5497 23.4601 29.5473 23.7761C29.5449 24.092 29.4791 24.4045 29.3537 24.6955C29.2282 24.9865 29.0455 25.2504 28.8161 25.4722C28.5867 25.694 28.3149 25.8692 28.0165 25.988C27.718 26.1067 27.3986 26.1666 27.0765 26.1643C26.7544 26.162 26.436 26.0974 26.1393 25.9743C25.8426 25.8513 25.5736 25.6721 25.3475 25.447L23.85 23.956C24.4367 23.2272 24.4205 22.5749 24.116 21.1041C24.0431 20.4869 23.2421 17.375 23.213 17.266C23.2043 17.2165 22.9809 16.054 21.3557 15.7554L21.3112 15.7503C21.24 15.7461 20.4911 15.6696 20.0356 15.6224C19.9943 15.6181 19.9526 15.6218 19.9129 15.6333C19.8731 15.6447 19.836 15.6638 19.8038 15.6894C19.7715 15.7149 19.7447 15.7465 19.7249 15.7822C19.7051 15.8179 19.6926 15.8571 19.6883 15.8976C19.6839 15.938 19.6878 15.9789 19.6995 16.0179C19.7113 16.0569 19.7308 16.0933 19.7569 16.1249C19.783 16.1565 19.8152 16.1827 19.8517 16.2021C19.8881 16.2214 19.9281 16.2336 19.9694 16.2378C20.9049 16.3347 21.172 16.3599 21.2553 16.3665C22.4195 16.5867 22.5857 17.343 22.5965 17.3945C22.7795 18.1046 23.2027 19.7833 23.3972 20.689L19.9084 24.0612C19.004 23.8606 17.2833 23.4165 16.543 23.2219C16.5104 23.215 15.7421 23.041 15.5349 21.8957C15.5294 21.815 15.5078 21.5542 15.4227 20.6324C15.4191 20.5919 15.4073 20.5525 15.3881 20.5164C15.3689 20.4804 15.3426 20.4484 15.3108 20.4223C15.279 20.3962 15.2422 20.3765 15.2027 20.3644C15.1631 20.3523 15.1214 20.3479 15.0801 20.3516C15.0388 20.3552 14.9987 20.3669 14.962 20.3858C14.9252 20.4047 14.8927 20.4305 14.8662 20.4618C14.8396 20.4931 14.8197 20.5292 14.8074 20.568C14.7951 20.6069 14.7907 20.6478 14.7946 20.6883C14.7947 20.6884 14.9011 21.8415 14.906 21.9304L14.9105 21.9851C15.1907 23.5838 16.3724 23.82 16.3992 23.824C16.5138 23.8543 18.8317 24.4644 19.8816 24.6893C19.887 24.6915 19.8929 24.6911 19.8984 24.693C20.0699 24.7295 20.21 24.7565 20.2951 24.7673C21.8756 25.1054 22.5345 25.1197 23.3271 24.4793L24.8155 25.9612C25.1104 26.2549 25.4614 26.4886 25.8484 26.6492C26.2354 26.8097 26.6508 26.8939 27.071 26.897C27.4911 26.9 27.9078 26.8219 28.2972 26.667C28.6866 26.512 29.041 26.2834 29.3403 25.9941C29.6396 25.7048 29.8779 25.3605 30.0416 24.9809C30.2052 24.6012 30.2911 24.1937 30.2942 23.7815C30.2973 23.3693 30.2176 22.9606 30.0597 22.5786C29.9018 22.1966 29.6687 21.8489 29.3738 21.5553L27.8703 20.0583C28.0784 19.7427 28.1707 19.3671 28.1321 18.9931C28.0935 18.6192 27.9263 18.2693 27.6579 18.0011V18.0011ZM20.6528 24.2102L23.538 21.4215C23.8161 22.8294 23.7451 23.2059 23.1191 23.8346C22.4722 24.4363 22.0878 24.5029 20.6528 24.2102ZM27.1161 19.8167C26.9839 19.9445 26.8161 20.0309 26.6339 20.0651C26.4516 20.0993 26.2632 20.0797 26.0923 20.0088C25.9214 19.9379 25.7758 19.8189 25.6739 19.6668C25.572 19.5147 25.5183 19.3364 25.5197 19.1544C25.521 18.9724 25.5774 18.7949 25.6816 18.6443C25.7858 18.4938 25.9332 18.3769 26.1051 18.3085C26.2771 18.2401 26.4658 18.2232 26.6475 18.26C26.8292 18.2969 26.9957 18.3857 27.1259 18.5154C27.3002 18.6894 27.3971 18.9241 27.3952 19.168C27.3934 19.412 27.293 19.6453 27.1161 19.8167V19.8167Z" fill="#232C60"/>
<path d="M40.3165 48.6761C40.5385 48.8981 40.8198 49.0542 41.1282 49.1264C41.4365 49.1986 41.7594 49.184 42.0596 49.0843C42.3599 48.9846 42.6254 48.8039 42.8257 48.5628C43.0259 48.3217 43.1528 48.0301 43.1917 47.7215C43.2306 47.4129 43.1799 47.0997 43.0456 46.818C42.9112 46.5364 42.6986 46.2976 42.4321 46.1292C42.1657 45.9607 41.8562 45.8694 41.5392 45.8658C41.2222 45.8621 40.9106 45.9463 40.6402 46.1086L39.1327 44.6077C38.6761 44.1531 38.4223 43.5392 38.4272 42.9011C38.432 42.263 38.695 41.6529 39.1584 41.205C39.6217 40.7571 40.2475 40.5082 40.898 40.5129C41.5484 40.5176 42.1704 40.7756 42.6269 41.2302L44.1244 42.7212C43.5378 43.45 43.5539 44.1023 43.8585 45.5731C43.9314 46.1903 44.7324 49.3022 44.7614 49.4112C44.7702 49.4607 44.9936 50.6232 46.6188 50.9218L46.6633 50.9269C46.7344 50.9311 47.4834 51.0076 47.9389 51.0548C47.9801 51.0591 48.0218 51.0554 48.0616 51.044C48.1014 51.0325 48.1385 51.0134 48.1707 50.9878C48.203 50.9623 48.2298 50.9307 48.2496 50.895C48.2694 50.8593 48.2819 50.8201 48.2862 50.7796C48.2906 50.7392 48.2867 50.6983 48.275 50.6593C48.2632 50.6203 48.2437 50.5839 48.2176 50.5523C48.1915 50.5207 48.1593 50.4945 48.1228 50.4751C48.0863 50.4557 48.0463 50.4436 48.0051 50.4394C47.0696 50.3425 46.8025 50.3173 46.7192 50.3107C45.5549 50.0905 45.3888 49.3342 45.378 49.2827C45.195 48.5726 44.7717 46.8939 44.5773 45.9882L48.0661 42.616C48.9704 42.8166 50.6912 43.2607 51.4315 43.4552C51.4641 43.4622 52.2324 43.6362 52.4396 44.7815C52.4451 44.8622 52.4666 45.123 52.5517 46.0448C52.5555 46.0852 52.5673 46.1246 52.5865 46.1605C52.6058 46.1965 52.632 46.2284 52.6638 46.2545C52.6956 46.2805 52.7324 46.3001 52.7719 46.3122C52.8114 46.3243 52.853 46.3286 52.8943 46.325C52.9355 46.3213 52.9756 46.3097 53.0123 46.2908C53.049 46.272 53.0815 46.2462 53.108 46.215C53.1345 46.1838 53.1545 46.1477 53.1669 46.109C53.1792 46.0702 53.1836 46.0294 53.1799 45.9889C53.1798 45.9888 53.0733 44.8357 53.0685 44.7468L53.064 44.6921C52.7838 43.0934 51.6021 42.8572 51.5752 42.8532C51.4606 42.8229 49.1428 42.2128 48.0929 41.9879C48.0875 41.9857 48.0816 41.9861 48.0761 41.9842C47.9046 41.9477 47.7645 41.9207 47.6794 41.9099C46.0989 41.5717 45.44 41.5575 44.6474 42.1979L43.159 40.716C42.5634 40.123 41.7521 39.7864 40.9035 39.7802C40.0549 39.7741 39.2386 40.0988 38.6341 40.6831C38.0297 41.2674 37.6865 42.0633 37.6803 42.8957C37.674 43.7282 38.005 44.529 38.6006 45.1219L40.1042 46.6189C39.8961 46.9345 39.8038 47.3101 39.8424 47.6841C39.881 48.058 40.0482 48.4079 40.3165 48.6761ZM47.3216 42.467L44.4365 45.2557C44.1583 43.8478 44.2294 43.4713 44.8554 42.8426C45.5023 42.2409 45.8866 42.1743 47.3216 42.467ZM40.8584 46.8605C40.9906 46.7327 41.1584 46.6463 41.3406 46.6121C41.5228 46.5779 41.7113 46.5975 41.8822 46.6684C42.053 46.7393 42.1986 46.8583 42.3006 47.0104C42.4025 47.1625 42.4562 47.3408 42.4548 47.5228C42.4534 47.7048 42.3971 47.8823 42.2929 48.0329C42.1886 48.1835 42.0412 48.3003 41.8693 48.3687C41.6974 48.4371 41.5086 48.454 41.327 48.4172C41.1453 48.3803 40.9788 48.2915 40.8486 48.1618C40.6742 47.9878 40.5774 47.7531 40.5792 47.5092C40.5811 47.2652 40.6815 47.0319 40.8584 46.8605V46.8605Z" fill="#232C60"/>
<path d="M22.5755 44.5133C22.576 49.4502 29.8152 49.4502 29.8158 44.5134H29.8209L29.8209 37.4106H29.8158V37.41L22.5755 37.41V37.4107C17.5491 37.4155 17.5491 44.5085 22.5755 44.5133Z" fill="#D62028"/>
<path d="M45.7091 21.6947C45.7085 16.7578 38.4693 16.7578 38.4687 21.6946H38.4636L38.4636 28.7974H38.4687V28.798L45.7091 28.798V28.7973C50.7355 28.7925 50.7355 21.6995 45.7091 21.6947Z" fill="#D62028"/>
</svg>
