<svg width="165" height="81" viewBox="0 0 165 81" fill="none" xmlns="http://www.w3.org/2000/svg">
<g clip-path="url(#clip0_110_280)">
<path d="M3.75747 80.9627C3.24025 80.9684 2.72697 80.874 2.24696 80.6849C1.8002 80.508 1.39411 80.2451 1.05265 79.9117C0.712802 79.5767 0.447563 79.1762 0.273737 78.7354C-0.0912457 77.7784 -0.0912457 76.7241 0.273737 75.767C0.448423 75.3281 0.713595 74.9292 1.05265 74.5954C1.39415 74.262 1.80024 73.9991 2.24696 73.8221C2.72696 73.633 3.24024 73.5386 3.75747 73.5442C4.27322 73.5383 4.78505 73.6328 5.26335 73.8221C5.70923 74.0007 6.11501 74.2634 6.45766 74.5954C6.79908 74.9282 7.06595 75.3273 7.2412 75.767C7.6063 76.7241 7.6063 77.7784 7.2412 78.7354C7.06681 79.177 6.79988 79.5777 6.45766 79.9117C6.11506 80.2437 5.70926 80.5064 5.26335 80.6849C4.78504 80.8743 4.27321 80.9687 3.75747 80.9627ZM3.75747 80.2219C4.16406 80.2261 4.56724 80.1488 4.94237 79.995C5.29749 79.8493 5.61895 79.6348 5.88745 79.3642C6.15594 79.0937 6.36594 78.7727 6.50483 78.4205C6.79437 77.6653 6.79437 76.8326 6.50483 76.0773C6.36571 75.7248 6.15538 75.4034 5.88649 75.1326C5.61828 74.8636 5.29705 74.6509 4.94237 74.5075C4.56648 74.3566 4.1636 74.281 3.75747 74.2852C3.34987 74.2813 2.94554 74.3568 2.56795 74.5075C2.21238 74.6493 1.89084 74.8622 1.62383 75.1326C1.35693 75.405 1.14687 75.7259 1.00549 76.0773C0.709672 76.8314 0.709672 77.6664 1.00549 78.4205C1.14695 78.7719 1.357 79.0928 1.62383 79.3652C1.89153 79.636 2.2128 79.8503 2.56795 79.995C2.94479 80.1486 3.34941 80.2258 3.75747 80.2219V80.2219Z" fill="#091835"/>
<path d="M12.8302 80.8702C12.7758 80.8732 12.7215 80.8652 12.6703 80.8469C12.6192 80.8286 12.5724 80.8003 12.5328 80.7637C12.496 80.7263 12.4674 80.682 12.4488 80.6335C12.4301 80.5849 12.4218 80.5331 12.4242 80.4813V76.2024C12.4196 76.1489 12.4268 76.0951 12.4456 76.0447C12.4644 75.9943 12.4941 75.9485 12.5328 75.9106C12.5714 75.8726 12.6181 75.8434 12.6695 75.825C12.7209 75.8066 12.7757 75.7995 12.8302 75.804C12.8831 75.8017 12.9358 75.81 12.9853 75.8283C13.0348 75.8466 13.08 75.8746 13.1181 75.9106C13.1554 75.9495 13.1842 75.9954 13.2029 76.0456C13.2215 76.0957 13.2296 76.1491 13.2267 76.2024V80.4813C13.2301 80.5332 13.2222 80.5853 13.2034 80.634C13.1847 80.6827 13.1556 80.7269 13.1181 80.7637C13.0806 80.8005 13.0355 80.8291 12.9859 80.8474C12.9362 80.8658 12.8831 80.8736 12.8302 80.8702V80.8702ZM16.8332 80.8702C16.7792 80.8722 16.7255 80.8634 16.6751 80.8443C16.6248 80.8252 16.579 80.7962 16.5405 80.759C16.5033 80.7228 16.474 80.6794 16.4545 80.6317C16.435 80.5839 16.4257 80.5327 16.4272 80.4813V78.1196C16.4408 77.7993 16.3675 77.4813 16.2148 77.198C16.0798 76.9664 15.8777 76.7794 15.6341 76.6608C15.3724 76.5368 15.0846 76.4749 14.7939 76.4801C14.518 76.4758 14.2449 76.5345 13.9961 76.6515C13.7716 76.7562 13.5782 76.9157 13.4344 77.1147C13.2951 77.3116 13.2224 77.5464 13.2267 77.786H12.6791C12.6856 77.417 12.795 77.0567 12.9954 76.7442C13.1934 76.4388 13.4681 76.1884 13.7932 76.0171C14.1351 75.836 14.5186 75.7436 14.9072 75.7486C15.3191 75.742 15.7263 75.8358 16.0921 76.0218C16.442 76.2045 16.7306 76.4828 16.9229 76.8229C17.1388 77.2214 17.2446 77.6685 17.2297 78.1196V80.4813C17.231 80.5327 17.2216 80.5838 17.2021 80.6316C17.1826 80.6793 17.1535 80.7227 17.1164 80.7591C17.0793 80.7954 17.0351 80.824 16.9864 80.8431C16.9377 80.8623 16.8856 80.8715 16.8332 80.8702H16.8332Z" fill="#091835"/>
<path d="M24.6786 80.9165C24.2008 80.9259 23.7288 80.8125 23.3096 80.5876C22.9184 80.3737 22.595 80.0581 22.3749 79.6755C22.1436 79.2681 22.0263 78.8079 22.035 78.3417C22.0251 77.8762 22.1355 77.4158 22.356 77.0035C22.561 76.6268 22.866 76.3116 23.2388 76.0912C23.6316 75.8641 24.0811 75.7487 24.5369 75.7578C24.9761 75.7476 25.4095 75.8583 25.7879 76.0773C26.1422 76.2891 26.4273 76.596 26.6093 76.9617C26.8068 77.3628 26.9054 77.8038 26.8972 78.2492C26.8991 78.2964 26.8909 78.3435 26.8729 78.3874C26.855 78.4313 26.8279 78.4709 26.7933 78.5038C26.7579 78.5363 26.7164 78.5616 26.671 78.5783C26.6257 78.595 26.5774 78.6027 26.529 78.601H22.5826V77.962H26.5762L26.1702 78.2399C26.1814 77.924 26.1167 77.6099 25.9814 77.323C25.8583 77.0615 25.6618 76.8399 25.4149 76.684C25.1514 76.5247 24.8463 76.4442 24.5369 76.4524C24.207 76.4449 23.8816 76.5283 23.5976 76.6932C23.3304 76.8533 23.117 77.0868 22.9839 77.3647C22.8381 77.6702 22.7655 78.0044 22.7714 78.3417C22.7651 78.6814 22.8497 79.0167 23.0169 79.3142C23.1753 79.5931 23.4088 79.8238 23.692 79.9811C23.9934 80.1454 24.3338 80.2285 24.6786 80.2219C24.902 80.2203 25.1236 80.1827 25.3347 80.1107C25.5288 80.0522 25.7099 79.9578 25.8681 79.8328C25.9431 79.7775 26.0339 79.7467 26.1277 79.7449C26.1711 79.7418 26.2148 79.7471 26.2561 79.7606C26.2974 79.7741 26.3356 79.7955 26.3685 79.8236C26.4102 79.8542 26.4448 79.8931 26.47 79.9378C26.4952 79.9825 26.5105 80.032 26.5148 80.0829C26.5155 80.1302 26.5042 80.177 26.482 80.219C26.4597 80.261 26.4273 80.297 26.3874 80.3237C26.1517 80.5119 25.8829 80.6562 25.5944 80.7498C25.301 80.856 24.9913 80.9124 24.6786 80.9165Z" fill="#091835"/>
<path d="M38.3397 80.8702C38.2858 80.8727 38.2319 80.8641 38.1815 80.845C38.1311 80.8258 38.0853 80.7966 38.0471 80.7591C38.0089 80.7216 37.9791 80.6767 37.9595 80.6273C37.94 80.5779 37.9313 80.525 37.9338 80.472V74.0351C37.9323 73.9819 37.9417 73.9289 37.9614 73.8793C37.9811 73.8297 38.0108 73.7845 38.0486 73.7464C38.0865 73.7082 38.1317 73.6779 38.1817 73.6571C38.2317 73.6364 38.2854 73.6258 38.3397 73.6258C38.394 73.6258 38.4477 73.6364 38.4977 73.6571C38.5477 73.6779 38.593 73.7082 38.6308 73.7464C38.6686 73.7845 38.6983 73.8297 38.718 73.8793C38.7378 73.9289 38.7471 73.9819 38.7456 74.0351V80.472C38.7482 80.525 38.7394 80.5778 38.7199 80.6273C38.7004 80.6767 38.6706 80.7216 38.6324 80.7591C38.5942 80.7965 38.5484 80.8258 38.498 80.8449C38.4476 80.8641 38.3937 80.8727 38.3397 80.8702Z" fill="#091835"/>
<path d="M44.4198 80.8702C44.3654 80.8732 44.3111 80.8652 44.2599 80.8469C44.2088 80.8286 44.162 80.8003 44.1224 80.7637C44.0856 80.7263 44.057 80.682 44.0384 80.6335C44.0197 80.5849 44.0114 80.5331 44.0138 80.4813V76.2024C44.0092 76.1489 44.0164 76.0951 44.0352 76.0447C44.0539 75.9943 44.0837 75.9485 44.1224 75.9106C44.161 75.8726 44.2077 75.8434 44.2591 75.825C44.3105 75.8066 44.3653 75.7995 44.4198 75.804C44.4727 75.8017 44.5254 75.8099 44.5749 75.8283C44.6244 75.8466 44.6696 75.8746 44.7077 75.9106C44.745 75.9495 44.7738 75.9954 44.7925 76.0456C44.8111 76.0957 44.8192 76.1491 44.8163 76.2024V80.4813C44.8197 80.5332 44.8118 80.5853 44.793 80.634C44.7743 80.6827 44.7452 80.7269 44.7077 80.7637C44.6702 80.8005 44.6251 80.829 44.5755 80.8474C44.5258 80.8658 44.4727 80.8736 44.4198 80.8702ZM48.4228 80.8702C48.3688 80.8722 48.3151 80.8634 48.2647 80.8443C48.2144 80.8252 48.1686 80.7962 48.1301 80.759C48.0929 80.7228 48.0636 80.6794 48.0441 80.6317C48.0246 80.5839 48.0153 80.5327 48.0168 80.4813V78.1196C48.0304 77.7993 47.9571 77.4813 47.8044 77.198C47.6694 76.9664 47.4673 76.7794 47.2237 76.6608C46.962 76.5368 46.6742 76.4749 46.3835 76.4801C46.1076 76.4758 45.8345 76.5345 45.5857 76.6515C45.3612 76.7562 45.1678 76.9157 45.024 77.1147C44.8847 77.3116 44.812 77.5464 44.8163 77.786H44.2687C44.2752 77.417 44.3846 77.0567 44.585 76.7442C44.783 76.4388 45.0577 76.1884 45.3828 76.0171C45.7247 75.836 46.1082 75.7436 46.4968 75.7486C46.9087 75.742 47.3159 75.8358 47.6817 76.0218C48.0316 76.2045 48.3202 76.4828 48.5125 76.8229C48.7284 77.2214 48.8342 77.6685 48.8193 78.1196V80.4813C48.8206 80.5327 48.8112 80.5838 48.7917 80.6316C48.7722 80.6793 48.743 80.7227 48.706 80.7591C48.6689 80.7954 48.6247 80.824 48.576 80.8431C48.5273 80.8623 48.4752 80.8715 48.4228 80.8702Z" fill="#091835"/>
<path d="M56.2493 80.9166C55.7796 80.9236 55.3166 80.8069 54.9087 80.5784C54.5176 80.3586 54.1933 80.0405 53.9693 79.6569C53.7357 79.2536 53.6166 78.7963 53.6246 78.3325C53.6173 77.8735 53.7312 77.4204 53.9551 77.0174C54.1661 76.638 54.4755 76.3201 54.852 76.0958C55.2394 75.8678 55.6842 75.7508 56.1359 75.7578C56.5214 75.7524 56.9024 75.8398 57.2453 76.0125C57.5636 76.1722 57.8399 76.402 58.0525 76.684V74.0351C58.0496 73.981 58.0587 73.9269 58.079 73.8766C58.0994 73.8262 58.1306 73.7808 58.1705 73.7433C58.2511 73.6747 58.3542 73.6369 58.4608 73.6369C58.5675 73.6369 58.6706 73.6747 58.7511 73.7433C58.7897 73.7815 58.8198 73.8272 58.8393 73.8775C58.8588 73.9277 58.8674 73.9814 58.8645 74.0351V78.3604C58.8587 78.8175 58.7335 79.2655 58.5009 79.6616C58.2741 80.0491 57.9456 80.3698 57.5496 80.5905C57.1537 80.8112 56.7046 80.9238 56.2493 80.9166H56.2493ZM56.2493 80.2126C56.5802 80.2184 56.9061 80.1316 57.1887 79.9625C57.461 79.7974 57.6854 79.5662 57.8401 79.2912C57.9982 78.9963 58.0808 78.6681 58.0808 78.3349C58.0808 78.0017 57.9982 77.6735 57.8401 77.3786C57.687 77.1024 57.4623 76.8707 57.1887 76.7071C56.905 76.5409 56.5796 76.4559 56.2493 76.4617C55.9191 76.4575 55.5941 76.5424 55.3099 76.7071C55.0313 76.8692 54.8017 77.101 54.6443 77.3786C54.4832 77.6726 54.3988 78.0011 54.3988 78.3349C54.3988 78.6686 54.4832 78.9972 54.6443 79.2912C54.8034 79.5675 55.0327 79.7988 55.3099 79.9625C55.5931 80.1301 55.9185 80.2167 56.2493 80.2126Z" fill="#091835"/>
<path d="M64.5667 74.8872C64.4942 74.8882 64.4223 74.8742 64.3556 74.8463C64.2889 74.8184 64.229 74.7771 64.1795 74.7251C64.1279 74.6748 64.0871 74.6149 64.0595 74.5489C64.0319 74.4829 64.0182 74.4121 64.019 74.3407C64.0168 74.2695 64.0305 74.1986 64.059 74.133C64.0875 74.0675 64.1303 74.0088 64.1842 73.961C64.2879 73.8658 64.4246 73.8128 64.5666 73.8128C64.7087 73.8128 64.8454 73.8658 64.949 73.961C65.003 74.0088 65.0457 74.0675 65.0742 74.1331C65.1027 74.1986 65.1164 74.2695 65.1142 74.3407C65.115 74.4121 65.1013 74.4829 65.0737 74.5489C65.0461 74.6149 65.0053 74.6748 64.9537 74.7251C64.9043 74.7771 64.8443 74.8183 64.7777 74.8463C64.711 74.8742 64.6391 74.8881 64.5667 74.8872ZM64.5761 80.8702C64.5225 80.8723 64.4691 80.8639 64.4189 80.8457C64.3686 80.8274 64.3226 80.7995 64.2834 80.7636C64.2448 80.7255 64.2147 80.6798 64.1952 80.6296C64.1757 80.5794 64.1671 80.5257 64.1701 80.472V76.2023C64.1672 76.1486 64.1757 76.0949 64.1953 76.0447C64.2148 75.9944 64.2448 75.9487 64.2834 75.9105C64.3226 75.8747 64.3687 75.8469 64.4189 75.8286C64.4691 75.8103 64.5225 75.8019 64.5761 75.804C64.6289 75.8017 64.6817 75.8099 64.7312 75.8282C64.7807 75.8465 64.8259 75.8746 64.864 75.9105C64.9013 75.9495 64.9301 75.9954 64.9488 76.0455C64.9674 76.0957 64.9755 76.149 64.9726 76.2023V80.472C64.9755 80.5253 64.9675 80.5786 64.9488 80.6287C64.9301 80.6789 64.9013 80.7248 64.864 80.7636C64.8259 80.7996 64.7807 80.8277 64.7312 80.846C64.6817 80.8643 64.6289 80.8725 64.5761 80.8702Z" fill="#091835"/>
<path d="M72.5158 80.9165C72.064 80.9236 71.6193 80.8065 71.2319 80.5784C70.8553 80.3542 70.5458 80.0363 70.335 79.6568C70.111 79.2537 69.9972 78.8007 70.0045 78.3417C69.9966 77.8779 70.1156 77.4206 70.3491 77.0173C70.5733 76.6338 70.8976 76.3157 71.2885 76.0958C71.6967 75.8741 72.1556 75.7578 72.6221 75.7578C73.0886 75.7578 73.5475 75.8741 73.9556 76.0958C74.3444 76.3168 74.6669 76.6347 74.8902 77.0173C75.124 77.4209 75.246 77.8775 75.2443 78.3417L74.9234 78.4992C74.9301 78.9299 74.821 79.3548 74.6071 79.731C74.4029 80.0885 74.1066 80.3871 73.7479 80.597C73.375 80.8128 72.9487 80.9234 72.5158 80.9165ZM72.6291 80.2125C72.9595 80.2184 73.2849 80.1334 73.5685 79.9671C73.8423 79.8036 74.067 79.572 74.2199 79.2957C74.3781 79.0008 74.4607 78.6726 74.4607 78.3394C74.4607 78.0062 74.3781 77.678 74.2199 77.3832C74.0652 77.1082 73.8409 76.8769 73.5685 76.7117C73.2859 76.5425 72.9601 76.4558 72.6291 76.4616C72.2984 76.4574 71.973 76.544 71.6897 76.7117C71.4126 76.8755 71.1833 77.1068 71.0241 77.3832C70.863 77.6771 70.7787 78.0057 70.7787 78.3394C70.7787 78.6732 70.863 79.0018 71.0241 79.2957C71.1815 79.5734 71.4112 79.8051 71.6897 79.9671C71.974 80.1319 72.299 80.2168 72.6291 80.2125H72.6291ZM74.8478 80.8702C74.7383 80.8739 74.6317 80.8356 74.5504 80.7636C74.5111 80.7277 74.4802 80.6839 74.4598 80.6351C74.4394 80.5864 74.4301 80.5338 74.4324 80.4812V78.953L74.6118 78.1472L75.2443 78.3417V80.4812C75.2467 80.5334 75.2378 80.5856 75.2183 80.6342C75.1988 80.6829 75.169 80.727 75.131 80.7636C75.0933 80.7989 75.0489 80.8265 75.0003 80.8448C74.9517 80.8631 74.8998 80.8717 74.8478 80.8702H74.8478Z" fill="#091835"/>
<path d="M89.8778 80.9627C89.3605 80.9684 88.8472 80.874 88.3672 80.685C87.9204 80.5081 87.5143 80.2451 87.1729 79.9117C86.8331 79.5767 86.5678 79.1762 86.394 78.7355C86.0288 77.7784 86.0288 76.7241 86.394 75.7671C86.5687 75.3281 86.8338 74.9293 87.1729 74.5955C87.5143 74.2621 87.9204 73.9991 88.3672 73.8222C89.3372 73.4516 90.4136 73.4516 91.3836 73.8222C91.8295 74.0007 92.2352 74.2634 92.5778 74.5955C92.9193 74.9282 93.1862 75.3273 93.3615 75.7671C93.7265 76.7241 93.7265 77.7784 93.3615 78.7355C93.1871 79.177 92.9201 79.5778 92.5778 79.9117C92.2352 80.2438 91.8295 80.5065 91.3836 80.685C90.9053 80.8743 90.3935 80.9687 89.8778 80.9627ZM89.8778 80.222C90.2843 80.2261 90.6874 80.1489 91.0625 79.995C91.4168 79.8488 91.7377 79.6347 92.0066 79.3652C92.2755 79.0944 92.4859 78.7731 92.625 78.4206C92.9147 77.6653 92.9147 76.8326 92.625 76.0773C92.4859 75.7248 92.2756 75.4034 92.0066 75.1327C91.7384 74.8636 91.4172 74.6509 91.0625 74.5075C90.6867 74.3566 90.2838 74.281 89.8778 74.2852C89.4701 74.2813 89.0658 74.3569 88.6881 74.5075C88.3326 74.6493 88.011 74.8622 87.744 75.1327C87.4772 75.4051 87.2671 75.7259 87.1256 76.0773C86.8299 76.8315 86.8299 77.6664 87.1256 78.4206C87.2672 78.7719 87.4772 79.0928 87.744 79.3652C88.0117 79.636 88.333 79.8503 88.6881 79.995C89.065 80.1486 89.4697 80.2258 89.8778 80.222V80.222Z" fill="#091835"/>
<path d="M98.9506 80.8702C98.8963 80.8732 98.8419 80.8652 98.7907 80.8469C98.7396 80.8286 98.6928 80.8003 98.6532 80.7637C98.6164 80.7263 98.5879 80.682 98.5692 80.6335C98.5505 80.5849 98.5421 80.5331 98.5446 80.4813V76.2024C98.5399 76.1489 98.5472 76.0951 98.566 76.0447C98.5848 75.9943 98.6145 75.9485 98.6532 75.9106C98.6919 75.8726 98.7385 75.8435 98.7899 75.825C98.8413 75.8066 98.8961 75.7995 98.9506 75.804C99.0035 75.8017 99.0562 75.8099 99.1057 75.8283C99.1552 75.8466 99.2004 75.8746 99.2385 75.9106C99.2758 75.9495 99.3047 75.9954 99.3233 76.0455C99.342 76.0957 99.3501 76.1491 99.3471 76.2024V80.4813C99.3505 80.5332 99.3426 80.5853 99.3238 80.6339C99.3051 80.6826 99.276 80.7269 99.2385 80.7637C99.201 80.8005 99.1559 80.829 99.1063 80.8474C99.0566 80.8657 99.0036 80.8735 98.9506 80.8702V80.8702ZM102.954 80.8702C102.9 80.8722 102.846 80.8634 102.796 80.8443C102.745 80.8251 102.699 80.7961 102.661 80.759C102.624 80.7228 102.594 80.6794 102.575 80.6316C102.556 80.5839 102.546 80.5327 102.548 80.4813V78.1196C102.561 77.7993 102.488 77.4813 102.335 77.198C102.2 76.9664 101.998 76.7794 101.755 76.6608C101.493 76.5368 101.205 76.4749 100.914 76.4801C100.638 76.4758 100.365 76.5345 100.117 76.6515C99.892 76.7563 99.6986 76.9158 99.5548 77.1147C99.4155 77.3116 99.3429 77.5464 99.3471 77.786H98.7995C98.806 77.417 98.9154 77.0567 99.1158 76.7442C99.3138 76.4388 99.5886 76.1885 99.9136 76.0171C100.256 75.836 100.639 75.7436 101.028 75.7486C101.44 75.7419 101.847 75.8358 102.212 76.0218C102.562 76.2045 102.851 76.4828 103.043 76.8229C103.259 77.2214 103.365 77.6685 103.35 78.1196V80.4813C103.351 80.5327 103.342 80.5838 103.323 80.6316C103.303 80.6794 103.274 80.7227 103.237 80.7591C103.2 80.7955 103.156 80.8241 103.107 80.8432C103.058 80.8623 103.006 80.8715 102.954 80.8702H102.954Z" fill="#091835"/>
<path d="M110.799 80.9165C110.321 80.9259 109.849 80.8125 109.43 80.5876C109.039 80.3737 108.715 80.0581 108.495 79.6755C108.264 79.2681 108.147 78.8079 108.155 78.3417C108.145 77.8762 108.256 77.4158 108.476 77.0035C108.681 76.6268 108.986 76.3116 109.359 76.0912C109.752 75.8641 110.201 75.7487 110.657 75.7578C111.097 75.7476 111.53 75.8583 111.908 76.0773C112.263 76.289 112.548 76.596 112.73 76.9617C112.927 77.3628 113.026 77.8038 113.018 78.2492C113.019 78.2964 113.011 78.3435 112.993 78.3874C112.975 78.4312 112.948 78.4709 112.914 78.5038C112.878 78.5363 112.837 78.5616 112.791 78.5783C112.746 78.595 112.698 78.6027 112.649 78.601H108.703V77.962H112.697L112.291 78.2399C112.302 77.924 112.237 77.6099 112.102 77.323C111.979 77.0615 111.782 76.8399 111.535 76.684C111.272 76.5247 110.967 76.4442 110.657 76.4524C110.327 76.4449 110.002 76.5283 109.718 76.6932C109.451 76.8533 109.237 77.0868 109.104 77.3647C108.959 77.6703 108.886 78.0044 108.892 78.3417C108.885 78.6814 108.97 79.0167 109.137 79.3142C109.296 79.5931 109.529 79.8238 109.812 79.9811C110.114 80.1454 110.454 80.2285 110.799 80.2219C111.022 80.2203 111.244 80.1827 111.455 80.1107C111.649 80.0522 111.83 79.9578 111.989 79.8328C112.063 79.7775 112.154 79.7467 112.248 79.7449C112.292 79.7418 112.335 79.7471 112.377 79.7606C112.418 79.7741 112.456 79.7955 112.489 79.8236C112.531 79.8542 112.565 79.8932 112.59 79.9378C112.616 79.9825 112.631 80.032 112.635 80.0829C112.636 80.1302 112.625 80.177 112.602 80.219C112.58 80.261 112.548 80.297 112.508 80.3237C112.272 80.5119 112.003 80.6563 111.715 80.7498C111.421 80.856 111.112 80.9124 110.799 80.9165Z" fill="#091835"/>
<path d="M124.46 80.8702C124.406 80.8727 124.352 80.8641 124.302 80.8449C124.251 80.8258 124.206 80.7965 124.167 80.759C124.129 80.7216 124.099 80.6767 124.08 80.6273C124.06 80.5779 124.052 80.525 124.054 80.472V74.0351C124.052 73.9822 124.06 73.9293 124.08 73.8799C124.099 73.8304 124.129 73.7855 124.167 73.748C124.206 73.7106 124.251 73.6813 124.302 73.6622C124.352 73.6431 124.406 73.6345 124.46 73.637H126.207C126.635 73.6297 127.059 73.7284 127.439 73.924C127.791 74.1062 128.085 74.3803 128.288 74.7159C128.498 75.0715 128.604 75.4768 128.595 75.8875C128.604 76.2775 128.5 76.662 128.296 76.9964C128.091 77.3308 127.794 77.6014 127.439 77.7768C127.057 77.9666 126.634 78.062 126.207 78.0547H124.866V80.472C124.869 80.525 124.86 80.5779 124.84 80.6273C124.821 80.6767 124.791 80.7216 124.753 80.7591C124.714 80.7966 124.669 80.8258 124.618 80.845C124.568 80.8641 124.514 80.8727 124.46 80.8702H124.46ZM124.866 77.2952H126.207C126.493 77.3001 126.776 77.2382 127.033 77.1147C127.266 77.0021 127.464 76.8291 127.604 76.6144C127.744 76.397 127.816 76.1444 127.812 75.8875C127.817 75.6128 127.745 75.3419 127.604 75.1048C127.467 74.8807 127.269 74.6981 127.033 74.577C126.778 74.4475 126.494 74.3823 126.207 74.3871H124.866L124.866 77.2952ZM128.397 80.8702C128.324 80.8726 128.252 80.8549 128.189 80.8193C128.129 80.7816 128.08 80.7289 128.048 80.6665L126.263 77.8787L127.066 77.675L128.718 80.2589C128.766 80.3176 128.796 80.3881 128.805 80.4625C128.814 80.5369 128.802 80.6123 128.77 80.6804C128.734 80.7445 128.679 80.7968 128.613 80.8305C128.546 80.8643 128.471 80.8781 128.397 80.8702Z" fill="#091835"/>
<path d="M135.676 80.9165C135.198 80.9259 134.726 80.8125 134.307 80.5876C133.916 80.3737 133.592 80.0581 133.372 79.6755C133.141 79.2681 133.024 78.8079 133.032 78.3417C133.022 77.8762 133.133 77.4158 133.353 77.0035C133.558 76.6268 133.863 76.3116 134.236 76.0912C134.629 75.8641 135.078 75.7487 135.534 75.7578C135.973 75.7476 136.407 75.8583 136.785 76.0773C137.139 76.289 137.425 76.596 137.606 76.9617C137.804 77.3628 137.903 77.8038 137.895 78.2492C137.896 78.2964 137.888 78.3435 137.87 78.3874C137.852 78.4312 137.825 78.4709 137.791 78.5038C137.755 78.5363 137.714 78.5616 137.668 78.5783C137.623 78.595 137.575 78.6027 137.526 78.601H133.58V77.962H137.574L137.167 78.2399C137.179 77.924 137.114 77.6099 136.979 77.323C136.856 77.0615 136.659 76.8399 136.412 76.684C136.149 76.5247 135.844 76.4442 135.534 76.4524C135.204 76.4449 134.879 76.5283 134.595 76.6932C134.328 76.8533 134.114 77.0868 133.981 77.3647C133.835 77.6703 133.763 78.0044 133.769 78.3417C133.762 78.6814 133.847 79.0167 134.014 79.3142C134.173 79.5931 134.406 79.8238 134.689 79.9811C134.991 80.1454 135.331 80.2285 135.676 80.2219C135.899 80.2203 136.121 80.1827 136.332 80.1107C136.526 80.0522 136.707 79.9578 136.865 79.8328C136.94 79.7775 137.031 79.7467 137.125 79.7449C137.169 79.7418 137.212 79.7471 137.254 79.7606C137.295 79.7741 137.333 79.7955 137.366 79.8236C137.408 79.8542 137.442 79.8932 137.467 79.9378C137.493 79.9825 137.508 80.032 137.512 80.0829C137.513 80.1302 137.502 80.177 137.479 80.219C137.457 80.261 137.425 80.297 137.385 80.3237C137.149 80.5119 136.88 80.6563 136.592 80.7498C136.298 80.856 135.989 80.9124 135.676 80.9165Z" fill="#091835"/>
<path d="M142.284 76.6654C142.235 76.6679 142.186 76.6606 142.14 76.6439C142.094 76.6272 142.051 76.6014 142.015 76.5682C141.983 76.5376 141.958 76.5008 141.941 76.4602C141.924 76.4195 141.916 76.3759 141.916 76.332C141.915 76.2866 141.923 76.2414 141.94 76.1992C141.957 76.157 141.983 76.1187 142.015 76.0866C142.051 76.0533 142.094 76.0275 142.14 76.0108C142.186 75.9941 142.235 75.9867 142.284 75.9893H144.711C144.759 75.9873 144.806 75.9949 144.851 76.0116C144.896 76.0284 144.936 76.0539 144.971 76.0866C145.003 76.1187 145.029 76.157 145.046 76.1992C145.063 76.2414 145.071 76.2866 145.07 76.332C145.07 76.3759 145.062 76.4195 145.045 76.4602C145.028 76.5008 145.003 76.5376 144.971 76.5682C144.936 76.6009 144.896 76.6264 144.851 76.6431C144.806 76.6598 144.759 76.6674 144.711 76.6654H142.284ZM143.21 80.8702C143.161 80.8705 143.112 80.8613 143.067 80.843C143.021 80.8247 142.98 80.7977 142.945 80.7636C142.907 80.7255 142.877 80.6798 142.857 80.6296C142.838 80.5794 142.829 80.5257 142.832 80.472V75.8226C142.823 75.4274 142.904 75.035 143.068 74.6741C143.216 74.357 143.458 74.0908 143.762 73.9101C144.093 73.7214 144.47 73.6269 144.853 73.6369C144.96 73.6326 145.065 73.6691 145.145 73.7387C145.181 73.7699 145.21 73.8084 145.23 73.8515C145.249 73.8947 145.259 73.9415 145.258 73.9888C145.26 74.0374 145.25 74.0859 145.231 74.1306C145.211 74.1754 145.182 74.2155 145.145 74.2481C145.065 74.3178 144.96 74.3543 144.853 74.35C144.616 74.3424 144.382 74.4054 144.182 74.5306C143.997 74.6541 143.853 74.8279 143.767 75.0307C143.668 75.264 143.62 75.5147 143.625 75.7671V80.472C143.628 80.5253 143.62 80.5786 143.601 80.6288C143.583 80.6789 143.554 80.7248 143.517 80.7636C143.475 80.8008 143.427 80.8294 143.374 80.8477C143.322 80.866 143.266 80.8736 143.21 80.8702Z" fill="#091835"/>
<path d="M151.707 80.9165C151.229 80.9259 150.757 80.8125 150.338 80.5876C149.947 80.3737 149.623 80.0581 149.403 79.6755C149.172 79.2681 149.055 78.8079 149.063 78.3417C149.053 77.8762 149.164 77.4158 149.384 77.0035C149.589 76.6268 149.894 76.3116 150.267 76.0912C150.66 75.8641 151.109 75.7487 151.565 75.7578C152.004 75.7476 152.438 75.8583 152.816 76.0773C153.17 76.289 153.456 76.596 153.637 76.9617C153.835 77.3628 153.934 77.8038 153.926 78.2492C153.927 78.2964 153.919 78.3435 153.901 78.3874C153.883 78.4312 153.856 78.4709 153.822 78.5038C153.786 78.5363 153.745 78.5616 153.699 78.5783C153.654 78.595 153.606 78.6027 153.557 78.601H149.611V77.962H153.605L153.198 78.2399C153.21 77.924 153.145 77.6099 153.01 77.323C152.887 77.0615 152.69 76.8399 152.443 76.684C152.18 76.5247 151.875 76.4442 151.565 76.4524C151.235 76.4449 150.91 76.5283 150.626 76.6932C150.359 76.8533 150.145 77.0868 150.012 77.3647C149.866 77.6703 149.794 78.0044 149.8 78.3417C149.793 78.6814 149.878 79.0167 150.045 79.3142C150.204 79.5931 150.437 79.8238 150.72 79.9811C151.022 80.1454 151.362 80.2285 151.707 80.2219C151.93 80.2203 152.152 80.1827 152.363 80.1107C152.557 80.0522 152.738 79.9578 152.896 79.8328C152.971 79.7775 153.062 79.7467 153.156 79.7449C153.2 79.7418 153.243 79.7471 153.285 79.7606C153.326 79.7741 153.364 79.7955 153.397 79.8236C153.439 79.8542 153.473 79.8932 153.498 79.9378C153.524 79.9825 153.539 80.032 153.543 80.0829C153.544 80.1302 153.533 80.177 153.51 80.219C153.488 80.261 153.456 80.297 153.416 80.3237C153.18 80.5119 152.911 80.6563 152.623 80.7498C152.329 80.856 152.02 80.9124 151.707 80.9165Z" fill="#091835"/>
<path d="M159.024 80.8702C158.97 80.8756 158.916 80.8693 158.866 80.8516C158.815 80.834 158.769 80.8055 158.731 80.7683C158.693 80.731 158.664 80.6859 158.646 80.6363C158.628 80.5866 158.622 80.5336 158.627 80.4812V76.1931C158.622 76.1406 158.628 76.0877 158.646 76.038C158.664 75.9883 158.693 75.9432 158.731 75.9059C158.769 75.8686 158.815 75.8401 158.866 75.8225C158.916 75.8049 158.97 75.7985 159.024 75.804C159.076 75.8004 159.129 75.8077 159.179 75.8252C159.228 75.8428 159.274 75.8703 159.312 75.9059C159.382 75.9851 159.418 76.0883 159.411 76.1931V80.4812C159.418 80.586 159.382 80.6891 159.312 80.7682C159.274 80.8039 159.228 80.8314 159.179 80.849C159.129 80.8665 159.076 80.8737 159.024 80.8702ZM158.977 77.7304C158.984 77.3727 159.086 77.023 159.274 76.7163C159.454 76.4224 159.707 76.1785 160.01 76.0078C160.316 75.8349 160.663 75.7454 161.016 75.7485C161.268 75.7343 161.519 75.782 161.748 75.8874C161.821 75.9171 161.88 75.9723 161.914 76.0425C161.948 76.1126 161.954 76.1927 161.932 76.2671C161.926 76.3043 161.913 76.3399 161.892 76.3718C161.872 76.4036 161.845 76.4311 161.814 76.4524C161.751 76.4901 161.679 76.5094 161.606 76.508C161.516 76.5073 161.426 76.5011 161.337 76.4893C161.007 76.4431 160.67 76.4669 160.35 76.5589C160.083 76.636 159.845 76.7891 159.666 76.9988C159.495 77.2052 159.404 77.4646 159.411 77.7304H158.977Z" fill="#091835"/>
<path d="M1.1958 70.2348H163.463" stroke="#D0D2D3" stroke-width="2.46897" stroke-miterlimit="10" stroke-linecap="round"/>
<path d="M83.9145 65.2816C83.7798 65.2826 83.6463 65.2573 83.5216 65.2072C83.397 65.157 83.2837 65.0831 83.1885 64.9897C83.0933 64.8962 83.0179 64.7851 82.9668 64.6628C82.9158 64.5405 82.89 64.4095 82.891 64.2774V48.0453C82.886 47.9109 82.9099 47.7769 82.9612 47.6522C83.0124 47.5274 83.0899 47.4147 83.1885 47.3212C83.2845 47.2296 83.3981 47.1576 83.5228 47.1095C83.6474 47.0614 83.7806 47.0381 83.9145 47.041C84.0999 47.0316 84.284 47.0751 84.4446 47.1663C84.6052 47.2575 84.7353 47.3925 84.8192 47.5549L92.6758 62.8993H91.8903L99.5802 47.5549C99.6672 47.395 99.798 47.2622 99.9579 47.1714C100.118 47.0806 100.3 47.0354 100.485 47.041C100.617 47.0374 100.749 47.0604 100.871 47.1086C100.994 47.1568 101.106 47.2291 101.199 47.3212C101.294 47.4164 101.369 47.5298 101.418 47.6543C101.467 47.7788 101.49 47.9118 101.485 48.0453V64.2774C101.488 64.4087 101.464 64.5394 101.415 64.6617C101.366 64.784 101.292 64.8955 101.199 64.9896C101.108 65.0848 100.997 65.1601 100.874 65.2104C100.751 65.2607 100.618 65.2849 100.485 65.2816C100.346 65.2858 100.208 65.262 100.079 65.2118C99.95 65.1616 99.8329 65.086 99.7348 64.9896C99.6382 64.8971 99.562 64.7862 99.5109 64.6637C99.4597 64.5412 99.4347 64.4097 99.4374 64.2774V50.7079L99.866 50.6844L93.0807 64.2774C92.9962 64.4325 92.8686 64.561 92.7127 64.6478C92.5567 64.7346 92.3788 64.7762 92.1997 64.7678C91.9971 64.7723 91.7978 64.7167 91.6279 64.6084C91.458 64.5 91.3254 64.3439 91.2473 64.1604L84.4623 50.8246L84.9384 50.7079V64.2774C84.9393 64.4095 84.9135 64.5405 84.8624 64.6628C84.8113 64.7851 84.7359 64.8962 84.6406 64.9896C84.5454 65.083 84.4321 65.157 84.3075 65.2071C84.1828 65.2572 84.0493 65.2825 83.9145 65.2816Z" fill="#232C60"/>
<path d="M107.341 50.194C107.158 50.1964 106.977 50.1613 106.809 50.0909C106.641 50.0205 106.49 49.9163 106.365 49.7852C106.235 49.6585 106.132 49.5074 106.062 49.3409C105.993 49.1744 105.958 48.9959 105.96 48.816C105.955 48.6363 105.989 48.4576 106.061 48.2922C106.133 48.1269 106.241 47.9789 106.377 47.8584C106.638 47.6184 106.983 47.4848 107.341 47.4848C107.699 47.4848 108.044 47.6184 108.305 47.8584C108.441 47.9789 108.549 48.1269 108.621 48.2923C108.693 48.4576 108.727 48.6363 108.722 48.816C108.724 48.9959 108.689 49.1744 108.62 49.3409C108.55 49.5073 108.447 49.6584 108.317 49.7852C108.193 49.9163 108.041 50.0204 107.873 50.0908C107.705 50.1612 107.524 50.1964 107.341 50.194ZM107.365 65.2816C107.23 65.2869 107.095 65.2659 106.969 65.2198C106.842 65.1737 106.726 65.1035 106.627 65.013C106.53 64.9168 106.454 64.8016 106.405 64.6749C106.355 64.5482 106.334 64.4128 106.341 64.2774V53.5104C106.334 53.375 106.355 53.2396 106.405 53.1129C106.454 52.9862 106.53 52.871 106.627 52.7747C106.726 52.6844 106.842 52.6141 106.969 52.568C107.095 52.522 107.23 52.5009 107.365 52.5062C107.498 52.5003 107.631 52.521 107.756 52.5672C107.881 52.6134 107.995 52.684 108.091 52.7747C108.185 52.8728 108.258 52.9886 108.305 53.1151C108.352 53.2415 108.372 53.376 108.365 53.5104V64.2774C108.372 64.4118 108.352 64.5463 108.305 64.6727C108.258 64.7992 108.185 64.915 108.091 65.013C107.995 65.1039 107.881 65.1745 107.756 65.2207C107.631 65.2668 107.498 65.2876 107.365 65.2816Z" fill="#232C60"/>
<path d="M112.246 54.6783C112.124 54.6826 112.002 54.6631 111.887 54.621C111.773 54.5789 111.668 54.515 111.579 54.433C111.495 54.3575 111.428 54.2654 111.383 54.1627C111.338 54.0601 111.316 53.9492 111.317 53.8374C111.314 53.722 111.336 53.6072 111.381 53.5005C111.426 53.3938 111.493 53.2977 111.579 53.2185C111.668 53.1365 111.773 53.0726 111.887 53.0305C112.002 52.9884 112.124 52.9689 112.246 52.9732H118.126C118.248 52.969 118.37 52.9885 118.485 53.0306C118.599 53.0727 118.704 53.1366 118.793 53.2185C118.878 53.2978 118.946 53.3939 118.991 53.5006C119.036 53.6072 119.058 53.722 119.055 53.8374C119.056 53.9492 119.034 54.06 118.989 54.1627C118.944 54.2653 118.877 54.3574 118.793 54.433C118.704 54.515 118.599 54.5788 118.485 54.6209C118.37 54.663 118.248 54.6825 118.126 54.6783H112.246ZM117.96 65.2816C117.188 65.2955 116.428 65.0973 115.765 64.7093C115.102 64.3213 114.564 63.759 114.21 63.0862C113.83 62.3732 113.638 61.5784 113.65 60.774V49.4233C113.646 49.2946 113.669 49.1663 113.716 49.046C113.762 48.9258 113.833 48.8158 113.924 48.7227C114.018 48.6286 114.132 48.555 114.257 48.5067C114.382 48.4584 114.516 48.4365 114.65 48.4424C114.782 48.4392 114.914 48.4624 115.037 48.5106C115.159 48.5588 115.271 48.631 115.365 48.7227C115.458 48.8144 115.532 48.9238 115.581 49.0442C115.63 49.1647 115.653 49.2936 115.65 49.4233V60.774C115.626 61.4405 115.86 62.0913 116.305 62.5958C116.509 62.8291 116.763 63.0151 117.049 63.1403C117.335 63.2655 117.646 63.3268 117.96 63.3198H118.674C118.795 63.3181 118.916 63.3423 119.027 63.3906C119.138 63.439 119.237 63.5104 119.317 63.6C119.493 63.7916 119.587 64.0427 119.579 64.3006C119.584 64.4355 119.557 64.5698 119.502 64.6932C119.446 64.8167 119.362 64.9261 119.257 65.0131C119.026 65.1979 118.734 65.2934 118.436 65.2816L117.96 65.2816Z" fill="#232C60"/>
<path d="M123.554 65.2816C123.419 65.2953 123.283 65.2794 123.156 65.2349C123.028 65.1905 122.912 65.1187 122.816 65.0247C122.72 64.9307 122.647 64.8169 122.602 64.6917C122.556 64.5664 122.54 64.4328 122.554 64.3006V53.487C122.54 53.3548 122.556 53.2213 122.602 53.096C122.647 52.9708 122.72 52.857 122.816 52.7631C122.912 52.6691 123.028 52.5973 123.156 52.5529C123.283 52.5084 123.419 52.4925 123.554 52.5062C123.687 52.4973 123.82 52.5155 123.945 52.5597C124.07 52.6039 124.184 52.6732 124.28 52.7631C124.457 52.9628 124.547 53.2229 124.53 53.487V64.3006C124.547 64.5648 124.457 64.825 124.28 65.0247C124.184 65.1147 124.07 65.184 123.945 65.2282C123.82 65.2724 123.687 65.2906 123.554 65.2816ZM123.435 57.3641C123.453 56.4619 123.711 55.5801 124.185 54.8066C124.639 54.0655 125.278 53.4505 126.042 53.02C126.813 52.5839 127.688 52.3581 128.578 52.3661C129.387 52.3661 130.002 52.4828 130.423 52.7163C130.843 52.95 130.998 53.2692 130.887 53.674C130.873 53.7677 130.839 53.8575 130.788 53.9379C130.736 54.0182 130.669 54.0873 130.589 54.141C130.432 54.2362 130.25 54.2849 130.066 54.2812C129.839 54.2794 129.612 54.2638 129.387 54.2345C128.555 54.1178 127.706 54.1776 126.899 54.4097C126.225 54.6044 125.624 54.9904 125.173 55.519C124.742 56.0396 124.514 56.6937 124.53 57.3641H123.435Z" fill="#232C60"/>
<path d="M138.363 65.3983C137.223 65.4163 136.102 65.121 135.125 64.5459C134.175 63.9805 133.395 63.1788 132.863 62.2221C132.298 61.2056 132.011 60.0631 132.03 58.9055C132.01 57.736 132.31 56.5827 132.899 55.5657C133.464 54.5985 134.282 53.7965 135.268 53.2419C136.297 52.6827 137.454 52.3893 138.63 52.3893C139.807 52.3893 140.964 52.6827 141.993 53.2419C142.974 53.7992 143.787 54.6009 144.35 55.5657C144.94 56.5836 145.247 57.7349 145.243 58.9055L144.434 59.3026C144.451 60.3888 144.176 61.4603 143.636 62.4089C143.121 63.3104 142.374 64.0635 141.469 64.5926C140.529 65.137 139.454 65.4159 138.363 65.3983ZM138.648 63.6234C139.481 63.6381 140.302 63.4237 141.017 63.0044C141.707 62.5921 142.274 62.0079 142.66 61.3112C143.059 60.5676 143.267 59.7399 143.267 58.8997C143.267 58.0595 143.059 57.2319 142.66 56.4882C142.27 55.7948 141.704 55.2116 141.017 54.795C140.305 54.3686 139.483 54.1499 138.648 54.1644C137.814 54.154 136.994 54.3724 136.28 54.795C135.581 55.208 135.002 55.7913 134.601 56.4882C134.195 57.2295 133.982 58.058 133.982 58.8997C133.982 59.7414 134.195 60.5699 134.601 61.3112C134.998 62.0115 135.577 62.5959 136.28 63.0044C136.996 63.42 137.816 63.6341 138.648 63.6234ZM144.243 65.2816C143.967 65.291 143.698 65.1947 143.493 65.013C143.394 64.9224 143.316 64.8118 143.265 64.6888C143.213 64.5658 143.19 64.4334 143.196 64.3006V60.447L143.648 58.4151L145.243 58.9055V64.3006C145.249 64.4324 145.227 64.5639 145.177 64.6866C145.128 64.8094 145.053 64.9206 144.957 65.013C144.862 65.102 144.75 65.1715 144.628 65.2176C144.505 65.2637 144.374 65.2855 144.243 65.2816V65.2816Z" fill="#232C60"/>
<path d="M83.732 13.4652C83.6345 13.4659 83.5378 13.4476 83.4475 13.4112C83.3572 13.3749 83.2752 13.3214 83.2063 13.2537C83.1373 13.1861 83.0827 13.1056 83.0457 13.0171C83.0087 12.9285 82.99 12.8337 82.9907 12.738V0.983784C82.9871 0.886438 83.0045 0.789445 83.0416 0.699109C83.0788 0.608774 83.1349 0.527119 83.2063 0.459453C83.2758 0.393081 83.3581 0.340954 83.4484 0.306115C83.5386 0.271276 83.635 0.254423 83.732 0.256538C83.8662 0.24972 83.9996 0.281242 84.1159 0.347282C84.2322 0.413323 84.3265 0.511045 84.3873 0.628602L90.0764 11.7401H89.5075L95.076 0.628602C95.139 0.512852 95.2337 0.416674 95.3494 0.350929C95.4652 0.285183 95.5973 0.252489 95.731 0.256538C95.8268 0.253884 95.9221 0.270521 96.0111 0.305422C96.1 0.340322 96.1808 0.392745 96.2483 0.459453C96.3173 0.528413 96.3713 0.610496 96.4069 0.700661C96.4425 0.790826 96.4589 0.887172 96.4551 0.983784V12.738C96.4573 12.8331 96.4401 12.9277 96.4046 13.0163C96.3691 13.1049 96.316 13.1856 96.2483 13.2538C96.1821 13.3227 96.1018 13.3772 96.0126 13.4137C95.9235 13.4501 95.8275 13.4677 95.731 13.4652C95.6306 13.4682 95.5306 13.451 95.4372 13.4147C95.3438 13.3783 95.259 13.3235 95.1881 13.2538C95.1181 13.1868 95.0628 13.1065 95.0257 13.0178C94.9887 12.9291 94.9705 12.8338 94.9725 12.738V2.9118L95.2829 2.89483L90.3696 12.738C90.3084 12.8504 90.216 12.9434 90.103 13.0063C89.9901 13.0692 89.8612 13.0993 89.7315 13.0931C89.5848 13.0964 89.4406 13.0562 89.3176 12.9777C89.1946 12.8993 89.0986 12.7862 89.0421 12.6534L84.1285 2.99637L84.4734 2.9118V12.738C84.4741 12.8337 84.4554 12.9285 84.4184 13.0171C84.3813 13.1056 84.3268 13.1861 84.2578 13.2537C84.1888 13.3214 84.1068 13.3749 84.0165 13.4113C83.9263 13.4476 83.8296 13.4659 83.732 13.4652V13.4652Z" fill="#D62028"/>
<path d="M103.662 13.1439C103.584 13.1874 103.498 13.2144 103.409 13.2231C103.32 13.2318 103.23 13.2221 103.145 13.1946C102.969 13.1249 102.827 12.9918 102.748 12.8225L98.8862 5.16114C98.8418 5.08167 98.815 4.99389 98.8076 4.90354C98.8001 4.8132 98.8122 4.72233 98.843 4.63689C98.9139 4.47117 99.0465 4.33811 99.2137 4.26475C99.3811 4.18753 99.5721 4.17547 99.7482 4.23099C99.8321 4.26283 99.9088 4.31059 99.9738 4.37152C100.039 4.43245 100.091 4.50536 100.127 4.58609L103.903 12.2644C103.991 12.4218 104.024 12.6028 103.998 12.7803C103.98 12.8648 103.94 12.9432 103.88 13.0071C103.821 13.0711 103.746 13.1183 103.662 13.1439ZM101.714 17.5073C101.594 17.5009 101.477 17.4722 101.369 17.4228C100.943 17.2309 100.829 16.9321 101.024 16.5264L106.489 4.60305C106.684 4.20852 106.989 4.10141 107.403 4.28171C107.828 4.45086 107.949 4.744 107.765 5.16114L102.265 17.0676C102.15 17.3607 101.966 17.5072 101.714 17.5073H101.714Z" fill="#D62028"/>
<path d="M116.126 13.4652C116.027 13.4697 115.929 13.454 115.837 13.4191C115.745 13.3841 115.661 13.3307 115.592 13.2622C115.522 13.1938 115.467 13.1118 115.432 13.0215C115.396 12.9312 115.38 12.8347 115.385 12.738V0.983784C115.38 0.88709 115.396 0.790513 115.432 0.700235C115.467 0.609957 115.522 0.527966 115.592 0.45951C115.661 0.391054 115.745 0.337641 115.837 0.30269C115.929 0.267738 116.027 0.252018 116.126 0.256536H119.316C120.098 0.24342 120.872 0.423702 121.565 0.780787C122.208 1.11373 122.745 1.61407 123.117 2.22684C123.5 2.87627 123.694 3.61628 123.677 4.36628C123.694 5.0784 123.504 5.7805 123.13 6.39116C122.756 7.00181 122.214 7.496 121.565 7.8164C120.869 8.16285 120.096 8.33703 119.316 8.32377H116.867V12.738C116.872 12.8347 116.856 12.9313 116.82 13.0216C116.785 13.1118 116.73 13.1938 116.66 13.2623C116.591 13.3308 116.507 13.3842 116.415 13.4191C116.323 13.454 116.225 13.4698 116.126 13.4652V13.4652ZM116.867 6.93696H119.316C119.838 6.94599 120.355 6.83295 120.824 6.60718C121.25 6.40164 121.611 6.08585 121.867 5.69391C122.122 5.29686 122.254 4.83556 122.246 4.36628C122.257 3.86467 122.126 3.37001 121.867 2.93711C121.616 2.52783 121.255 2.19427 120.824 1.97311C120.358 1.73666 119.84 1.61753 119.316 1.62645H116.867V6.93696ZM123.315 13.4652C123.182 13.4695 123.051 13.4373 122.936 13.3722C122.826 13.3034 122.737 13.2071 122.677 13.0931L119.419 8.00243L120.884 7.63037L123.901 12.349C124.085 12.6309 124.117 12.8874 123.996 13.1185C123.876 13.3497 123.649 13.4653 123.315 13.4652Z" fill="#D62028"/>
<path d="M130.608 13.5498C129.735 13.5669 128.874 13.3599 128.108 12.9494C127.394 12.5587 126.803 11.9823 126.401 11.2835C125.979 10.5397 125.764 9.69941 125.78 8.8481C125.762 7.99795 125.964 7.15715 126.367 6.4042C126.741 5.71643 127.298 5.14081 127.979 4.73835C128.696 4.32361 129.517 4.11279 130.349 4.12945C131.151 4.11095 131.942 4.31307 132.633 4.71295C133.28 5.09969 133.801 5.66021 134.133 6.32815C134.494 7.06046 134.674 7.86574 134.659 8.67895C134.663 8.7652 134.648 8.8512 134.615 8.93134C134.582 9.01148 134.533 9.08395 134.47 9.14403C134.405 9.20339 134.329 9.24964 134.246 9.28011C134.163 9.31059 134.075 9.3247 133.987 9.32162H126.78V8.1547H134.073L133.332 8.66206C133.352 8.08516 133.234 7.51162 132.987 6.9877C132.762 6.5103 132.403 6.10556 131.953 5.82077C131.471 5.52997 130.914 5.38302 130.349 5.3979C129.747 5.38423 129.152 5.53658 128.634 5.83766C128.146 6.13 127.756 6.55634 127.513 7.06383C127.247 7.62185 127.114 8.23213 127.125 8.8481C127.114 9.46833 127.268 10.0807 127.574 10.6239C127.863 11.1332 128.289 11.5544 128.806 11.8416C129.356 12.1418 129.978 12.2935 130.608 12.2813C131.016 12.2784 131.42 12.2099 131.806 12.0784C132.16 11.9714 132.491 11.7992 132.78 11.571C132.917 11.4699 133.083 11.4137 133.254 11.4103C133.333 11.4046 133.413 11.4144 133.489 11.4391C133.564 11.4637 133.634 11.5028 133.694 11.5541C133.77 11.61 133.833 11.6811 133.879 11.7628C133.925 11.8444 133.953 11.9347 133.961 12.0277C133.962 12.1141 133.942 12.1995 133.901 12.2762C133.86 12.353 133.801 12.4186 133.728 12.4674C133.298 12.811 132.807 13.0746 132.28 13.2453C131.744 13.4393 131.179 13.5422 130.608 13.5498Z" fill="#D62028"/>
<path d="M136.676 5.78693C136.586 5.79154 136.496 5.77818 136.412 5.74765C136.327 5.71712 136.25 5.67006 136.185 5.60934C136.126 5.55338 136.08 5.48624 136.049 5.41206C136.018 5.33788 136.002 5.25823 136.004 5.17803C136.001 5.09517 136.016 5.01267 136.047 4.93561C136.078 4.85855 136.125 4.78854 136.185 4.72991C136.25 4.66917 136.327 4.6221 136.412 4.59157C136.496 4.56104 136.586 4.54769 136.676 4.55232H141.107C141.194 4.5487 141.281 4.56259 141.363 4.59313C141.444 4.62367 141.518 4.67021 141.581 4.72991C141.641 4.78852 141.688 4.85852 141.719 4.93559C141.75 5.01266 141.765 5.09517 141.762 5.17803C141.763 5.25824 141.748 5.3379 141.717 5.41209C141.686 5.48627 141.64 5.5534 141.581 5.60934C141.518 5.66902 141.444 5.71556 141.363 5.74609C141.281 5.77663 141.194 5.79053 141.107 5.78693H136.676ZM138.366 13.4652C138.276 13.4658 138.187 13.449 138.104 13.4156C138.022 13.3822 137.946 13.3329 137.883 13.2707C137.812 13.2011 137.758 13.1177 137.722 13.0259C137.686 12.9341 137.671 12.836 137.676 12.738V4.24786C137.659 3.52611 137.807 2.80976 138.107 2.1507C138.377 1.57161 138.819 1.08553 139.374 0.755463C139.978 0.410914 140.667 0.238146 141.365 0.256536C141.561 0.24864 141.753 0.315289 141.9 0.442571C141.966 0.49947 142.019 0.569766 142.054 0.648604C142.09 0.727443 142.108 0.812945 142.107 0.899208C142.109 0.988125 142.092 1.07652 142.056 1.15828C142.021 1.24005 141.967 1.31322 141.9 1.37273C141.753 1.50011 141.561 1.56677 141.365 1.55876C140.933 1.54495 140.506 1.65992 140.141 1.88854C139.803 2.11404 139.54 2.43144 139.383 2.80182C139.203 3.22775 139.115 3.68552 139.124 4.1464V12.738C139.13 12.8353 139.115 12.9327 139.081 13.0243C139.047 13.1159 138.994 13.1997 138.926 13.2707C138.851 13.3385 138.762 13.3907 138.666 13.4241C138.57 13.4575 138.468 13.4715 138.366 13.4652Z" fill="#D62028"/>
<path d="M147.882 13.5498C147.01 13.5669 146.148 13.3599 145.382 12.9494C144.668 12.5587 144.078 11.9823 143.676 11.2835C143.253 10.5397 143.039 9.69941 143.055 8.8481C143.037 7.99795 143.239 7.15715 143.641 6.4042C144.016 5.71643 144.573 5.14081 145.253 4.73835C145.971 4.32361 146.791 4.11279 147.624 4.12945C148.426 4.11095 149.217 4.31307 149.908 4.71294C150.555 5.09969 151.076 5.66021 151.408 6.32815C151.769 7.06046 151.949 7.86574 151.934 8.67895C151.937 8.7652 151.922 8.8512 151.89 8.93134C151.857 9.01148 151.807 9.08395 151.744 9.14403C151.68 9.20339 151.604 9.24964 151.521 9.28011C151.438 9.31059 151.35 9.3247 151.261 9.32162H144.055V8.1547H151.348L150.606 8.66206C150.627 8.08516 150.509 7.51162 150.262 6.9877C150.037 6.5103 149.678 6.10556 149.227 5.82077C148.746 5.52997 148.189 5.38302 147.624 5.3979C147.021 5.38423 146.427 5.53658 145.908 5.83766C145.421 6.13 145.031 6.55634 144.788 7.06383C144.522 7.62185 144.389 8.23212 144.4 8.8481C144.388 9.46833 144.543 10.0807 144.848 10.6239C145.137 11.1332 145.564 11.5544 146.081 11.8416C146.631 12.1418 147.253 12.2935 147.882 12.2813C148.29 12.2784 148.695 12.2099 149.081 12.0784C149.435 11.9714 149.766 11.7992 150.055 11.571C150.192 11.4699 150.357 11.4137 150.529 11.4103C150.608 11.4046 150.688 11.4144 150.763 11.4391C150.839 11.4637 150.908 11.5028 150.968 11.5541C151.044 11.61 151.108 11.6811 151.154 11.7628C151.2 11.8444 151.228 11.9347 151.236 12.0277C151.237 12.1141 151.216 12.1995 151.176 12.2762C151.135 12.353 151.076 12.4186 151.003 12.4674C150.572 12.811 150.082 13.0746 149.555 13.2453C149.019 13.4393 148.453 13.5422 147.882 13.5498Z" fill="#D62028"/>
<path d="M155.244 13.4652C155.146 13.4751 155.048 13.4636 154.955 13.4314C154.863 13.3992 154.779 13.3472 154.709 13.2791C154.64 13.2111 154.587 13.1287 154.554 13.038C154.522 12.9473 154.51 12.8506 154.52 12.7548V4.92437C154.51 4.82866 154.522 4.73193 154.554 4.64123C154.587 4.55053 154.64 4.46816 154.709 4.4001C154.779 4.33205 154.863 4.28003 154.955 4.24784C155.048 4.21564 155.146 4.20409 155.244 4.21401C155.34 4.20753 155.436 4.22072 155.527 4.25274C155.617 4.28477 155.7 4.33494 155.77 4.40004C155.898 4.54471 155.963 4.73306 155.951 4.92437V12.7548C155.963 12.9462 155.898 13.1346 155.77 13.2792C155.7 13.3443 155.617 13.3945 155.527 13.4266C155.436 13.4586 155.34 13.4718 155.244 13.4652ZM155.158 7.73182C155.171 7.07858 155.358 6.44004 155.701 5.87994C156.029 5.34323 156.492 4.89783 157.046 4.58608C157.604 4.2703 158.238 4.1068 158.882 4.11256C159.468 4.11256 159.913 4.19714 160.218 4.36629C160.522 4.53535 160.634 4.76649 160.554 5.05968C160.544 5.12754 160.519 5.19257 160.482 5.25075C160.445 5.30893 160.396 5.35902 160.338 5.3979C160.225 5.46681 160.093 5.50204 159.959 5.49936C159.795 5.49809 159.631 5.48681 159.468 5.4656C158.865 5.38112 158.251 5.42438 157.666 5.59246C157.178 5.73346 156.743 6.01294 156.416 6.39576C156.104 6.77272 155.939 7.24636 155.951 7.73183L155.158 7.73182Z" fill="#D62028"/>
<path d="M84.0365 38.7063C83.9003 38.7126 83.7644 38.6909 83.6373 38.6426C83.5102 38.5944 83.3948 38.5206 83.2984 38.4261C83.202 38.3315 83.1269 38.2183 83.0777 38.0936C83.0285 37.9689 83.0064 37.8356 83.0128 37.702V21.47C83.0064 21.3365 83.0285 21.2031 83.0777 21.0784C83.1269 20.9537 83.2021 20.8405 83.2984 20.746C83.3948 20.6514 83.5102 20.5777 83.6373 20.5294C83.7644 20.4812 83.9003 20.4595 84.0365 20.4657H88.798C89.8928 20.4459 90.9732 20.7118 91.9287 21.2364C92.8224 21.7318 93.5596 22.459 94.0595 23.3385C94.584 24.2915 94.8465 25.362 94.8215 26.4447C94.842 27.5009 94.5793 28.544 94.0595 29.4692C93.5587 30.342 92.8212 31.0615 91.9287 31.5479C90.9708 32.0652 89.8913 32.3269 88.798 32.3069H85.0601V37.702C85.0665 37.8356 85.0444 37.9689 84.9953 38.0936C84.9461 38.2183 84.8709 38.3315 84.7745 38.4261C84.6782 38.5206 84.5628 38.5944 84.4357 38.6426C84.3086 38.6909 84.1726 38.7126 84.0365 38.7063H84.0365ZM85.0601 30.3918H88.798C89.525 30.4043 90.2429 30.2312 90.8812 29.8896C91.4844 29.5625 91.9831 29.0773 92.3216 28.4883C92.6771 27.8645 92.8579 27.1593 92.8454 26.4447C92.8624 25.7036 92.6819 24.971 92.3217 24.3193C91.9821 23.722 91.4845 23.2258 90.8812 22.883C90.2477 22.527 89.528 22.3454 88.798 22.3576H85.0601L85.0601 30.3918Z" fill="#232C60"/>
<path d="M98.4399 33.6616C98.3051 33.6704 98.17 33.6513 98.0432 33.6055C97.9165 33.5597 97.8011 33.4881 97.7045 33.3955C97.6078 33.303 97.5322 33.1914 97.4825 33.0682C97.4328 32.9451 97.4102 32.813 97.416 32.6806V21.47C97.4043 21.3352 97.4227 21.1995 97.47 21.0725C97.5174 20.9454 97.5924 20.83 97.6899 20.7343C97.7874 20.6387 97.9051 20.5651 98.0346 20.5187C98.1641 20.4723 98.3025 20.4542 98.4399 20.4657C98.5731 20.4598 98.7062 20.4806 98.8311 20.5268C98.9559 20.5729 99.0698 20.6436 99.1659 20.7343C99.2599 20.8324 99.3326 20.9482 99.3797 21.0746C99.4267 21.2011 99.4471 21.3356 99.4397 21.47V32.6806C99.4436 32.8094 99.4214 32.9376 99.3744 33.0579C99.3274 33.1782 99.2565 33.2881 99.1659 33.3813C99.0717 33.4753 98.9583 33.5488 98.8332 33.5971C98.7082 33.6454 98.5741 33.6673 98.4399 33.6616ZM98.4399 38.7063C98.3028 38.7138 98.1657 38.6938 98.0367 38.6476C97.9078 38.6015 97.7898 38.53 97.6899 38.4377C97.5973 38.3435 97.5252 38.2318 97.4781 38.1093C97.431 37.9868 97.4099 37.8562 97.416 37.7254V26.9352C97.4043 26.8004 97.4227 26.6647 97.47 26.5376C97.5174 26.4106 97.5924 26.2952 97.6899 26.1995C97.7874 26.1038 97.9051 26.0302 98.0346 25.9838C98.1641 25.9374 98.3025 25.9194 98.4399 25.9309C98.5731 25.925 98.7062 25.9457 98.8311 25.9919C98.9559 26.0381 99.0698 26.1087 99.1659 26.1995C99.2599 26.2976 99.3326 26.4134 99.3797 26.5398C99.4267 26.6663 99.4471 26.8008 99.4397 26.9352V37.7254C99.4483 37.8564 99.4283 37.9877 99.3811 38.1105C99.3339 38.2334 99.2605 38.3449 99.1659 38.4377C99.0713 38.5305 98.9576 38.6025 98.8324 38.6488C98.7072 38.6951 98.5734 38.7147 98.4399 38.7063ZM108.534 38.7063C108.398 38.7114 108.263 38.6892 108.136 38.641C108.009 38.5928 107.893 38.5197 107.796 38.4261C107.702 38.3346 107.629 38.2253 107.58 38.1048C107.53 37.9843 107.507 37.8552 107.511 37.7254V31.7698C107.511 30.8202 107.332 30.0456 106.975 29.4459C106.634 28.862 106.125 28.3906 105.511 28.0913C104.851 27.7786 104.125 27.6226 103.392 27.6358C102.696 27.6249 102.007 27.7728 101.38 28.0679C100.814 28.332 100.326 28.7341 99.9634 29.2357C99.6123 29.7324 99.429 30.3247 99.4397 30.929H98.059C98.0752 29.9981 98.351 29.0894 98.8565 28.3015C99.3558 27.5313 100.049 26.9 100.868 26.4681C101.731 26.0114 102.698 25.7782 103.678 25.7908C104.716 25.7741 105.743 26.0108 106.665 26.4797C107.548 26.9407 108.276 27.6423 108.761 28.5C109.276 29.3875 109.534 30.4775 109.534 31.7698V37.7254C109.537 37.8551 109.514 37.9841 109.465 38.1045C109.416 38.225 109.342 38.3344 109.249 38.4261C109.155 38.5178 109.044 38.59 108.921 38.6381C108.798 38.6863 108.667 38.7095 108.534 38.7063Z" fill="#232C60"/>
<path d="M118.533 38.2626C118.426 38.3226 118.307 38.3599 118.184 38.372C118.061 38.384 117.936 38.3706 117.819 38.3327C117.576 38.2364 117.38 38.0525 117.271 37.8188L111.938 27.2388C111.877 27.129 111.84 27.0078 111.83 26.883C111.82 26.7582 111.836 26.6327 111.879 26.5148C111.977 26.2859 112.16 26.1022 112.391 26.0009C112.622 25.8943 112.886 25.8776 113.129 25.9543C113.245 25.9983 113.351 26.0642 113.44 26.1484C113.53 26.2325 113.602 26.3332 113.653 26.4447L118.867 37.0481C118.988 37.2654 119.034 37.5153 118.997 37.7604C118.973 37.8772 118.917 37.9854 118.835 38.0737C118.754 38.162 118.649 38.2272 118.533 38.2626ZM115.843 44.2883C115.678 44.2794 115.516 44.2397 115.367 44.1714C114.779 43.9067 114.621 43.4941 114.891 42.9335L122.438 26.4681C122.707 25.9232 123.128 25.7753 123.7 26.0243C124.286 26.2579 124.453 26.6627 124.199 27.2388L116.605 43.6812C116.446 44.0857 116.192 44.2881 115.843 44.2883Z" fill="#232C60"/>
<path d="M131.151 38.8231C130.174 38.8243 129.204 38.6624 128.282 38.3443C127.437 38.0766 126.672 37.6072 126.056 36.978C125.965 36.8866 125.896 36.776 125.855 36.6546C125.814 36.5332 125.801 36.4042 125.818 36.2774C125.833 36.1486 125.874 36.024 125.94 35.9115C126.005 35.799 126.094 35.701 126.199 35.6234C126.306 35.5364 126.43 35.471 126.562 35.4309C126.695 35.3909 126.835 35.3769 126.973 35.3898C127.225 35.4161 127.458 35.5325 127.628 35.7168C128.023 36.1529 128.522 36.486 129.08 36.6861C129.733 36.9336 130.428 37.0565 131.128 37.0481C132.223 37.0481 133.028 36.8652 133.544 36.4992C134.06 36.1336 134.325 35.6781 134.342 35.1329C134.342 34.6038 134.084 34.1601 133.568 33.8017C133.052 33.4437 132.175 33.1634 130.937 32.9609C129.334 32.6963 128.163 32.2525 127.425 31.6296C126.687 31.0071 126.318 30.2597 126.318 29.3875C126.292 28.669 126.529 27.9651 126.985 27.4023C127.449 26.8591 128.054 26.4478 128.735 26.2112C129.486 25.9415 130.28 25.807 131.08 25.8141C132.028 25.7916 132.97 25.9709 133.842 26.3396C134.575 26.6563 135.22 27.1409 135.722 27.7526C135.804 27.8472 135.867 27.9567 135.905 28.075C135.944 28.1932 135.959 28.3178 135.949 28.4416C135.936 28.5614 135.894 28.6763 135.826 28.7761C135.757 28.876 135.664 28.9576 135.556 29.0138C135.451 29.0838 135.332 29.1323 135.207 29.1563C135.082 29.1804 134.954 29.1796 134.83 29.1539C134.559 29.1112 134.311 28.9794 134.127 28.7803C133.753 28.3751 133.289 28.0595 132.77 27.8577C132.215 27.6549 131.625 27.5559 131.032 27.5658C130.207 27.5658 129.54 27.7254 129.032 28.0446C128.524 28.3639 128.27 28.7726 128.271 29.2707C128.262 29.5877 128.358 29.8988 128.544 30.1582C128.727 30.4075 129.052 30.6294 129.521 30.8238C130.17 31.0676 130.845 31.2438 131.532 31.3494C132.723 31.5519 133.663 31.836 134.353 32.2018C135.044 32.5678 135.536 32.9921 135.829 33.4747C136.124 33.962 136.277 34.5196 136.27 35.0863C136.283 35.7793 136.061 36.4569 135.639 37.0131C135.176 37.5979 134.564 38.053 133.865 38.3327C133.005 38.6781 132.081 38.845 131.151 38.8231Z" fill="#232C60"/>
<path d="M140.746 23.6187C140.563 23.6211 140.382 23.586 140.214 23.5156C140.045 23.4452 139.894 23.3411 139.77 23.21C139.639 23.0833 139.536 22.9322 139.467 22.7657C139.397 22.5992 139.363 22.4207 139.365 22.2407C139.359 22.061 139.394 21.8823 139.466 21.717C139.538 21.5516 139.645 21.4036 139.781 21.2832C140.043 21.0431 140.388 20.9095 140.746 20.9095C141.104 20.9095 141.449 21.0431 141.71 21.2832C141.846 21.4036 141.954 21.5517 142.026 21.717C142.098 21.8823 142.132 22.061 142.127 22.2407C142.129 22.4206 142.094 22.5991 142.024 22.7656C141.955 22.9321 141.852 23.0832 141.722 23.21C141.597 23.3411 141.446 23.4452 141.278 23.5155C141.11 23.5859 140.928 23.6211 140.746 23.6187ZM140.77 38.7063C140.635 38.7116 140.5 38.6906 140.373 38.6445C140.246 38.5984 140.13 38.5281 140.031 38.4377C139.934 38.3415 139.858 38.2263 139.809 38.0996C139.76 37.9728 139.738 37.8374 139.746 37.702V26.9352C139.738 26.7998 139.76 26.6644 139.809 26.5376C139.858 26.4109 139.934 26.2957 140.031 26.1995C140.13 26.1091 140.246 26.0389 140.373 25.9928C140.5 25.9467 140.635 25.9256 140.77 25.9309C140.903 25.925 141.036 25.9458 141.161 25.9919C141.286 26.0381 141.4 26.1087 141.496 26.1995C141.59 26.2976 141.662 26.4133 141.709 26.5398C141.756 26.6663 141.777 26.8008 141.769 26.9352V37.702C141.777 37.8364 141.757 37.9709 141.709 38.0974C141.662 38.2239 141.59 38.3396 141.496 38.4377C141.4 38.5285 141.286 38.5992 141.161 38.6454C141.036 38.6916 140.903 38.7123 140.77 38.7063Z" fill="#232C60"/>
<path d="M145.358 31.7249C145.561 31.7226 145.759 31.6556 145.92 31.5339C146.082 31.4122 146.199 31.2425 146.254 31.05C146.549 30.0806 147.154 29.2303 147.981 28.6257C148.808 28.0211 149.811 27.6945 150.843 27.6945C151.874 27.6945 152.877 28.021 153.704 28.6256C154.531 29.2302 155.137 30.0805 155.431 31.05C155.486 31.2424 155.603 31.4122 155.765 31.5339C155.926 31.6556 156.124 31.7226 156.327 31.7249C156.471 31.7259 156.612 31.6944 156.74 31.6329C156.869 31.5714 156.981 31.4815 157.068 31.3703C157.156 31.2591 157.216 31.1296 157.243 30.992C157.271 30.8543 157.266 30.7122 157.228 30.5769C156.826 29.2207 155.986 28.0291 154.835 27.1813C153.683 26.3334 152.282 25.8751 150.843 25.8751C149.403 25.8751 148.002 26.3334 146.85 27.1813C145.699 28.0291 144.859 29.2206 144.457 30.5768C144.419 30.7122 144.414 30.8543 144.442 30.992C144.47 31.1296 144.529 31.2591 144.617 31.3703C144.704 31.4815 144.816 31.5714 144.945 31.6329C145.073 31.6944 145.215 31.7259 145.358 31.7249L145.358 31.7249Z" fill="#CDCDCD"/>
<path d="M156.132 33.3952C155.947 33.396 155.767 33.4507 155.615 33.5524C155.462 33.6541 155.343 33.7982 155.275 33.9662C154.915 34.8302 154.302 35.5697 153.513 36.0902C152.723 36.6108 151.794 36.8888 150.842 36.8887C149.891 36.8887 148.962 36.6107 148.172 36.0902C147.383 35.5696 146.769 34.8302 146.41 33.9662C146.341 33.7982 146.223 33.6541 146.07 33.5524C145.918 33.4507 145.737 33.396 145.553 33.3952C145.402 33.3943 145.253 33.4295 145.119 33.4978C144.985 33.5662 144.871 33.6655 144.785 33.7872C144.699 33.909 144.645 34.0494 144.627 34.1964C144.609 34.3433 144.628 34.4924 144.682 34.6305C145.178 35.8351 146.029 36.8668 147.127 37.5934C148.224 38.32 149.518 38.7081 150.842 38.7081C152.167 38.7081 153.461 38.3199 154.558 37.5934C155.656 36.8668 156.507 35.835 157.003 34.6305C157.057 34.4923 157.076 34.3433 157.058 34.1963C157.04 34.0494 156.986 33.9089 156.9 33.7872C156.814 33.6655 156.699 33.5661 156.566 33.4978C156.432 33.4295 156.283 33.3943 156.132 33.3952H156.132Z" fill="#D51F26"/>
<path d="M151.112 37.3897C151.006 37.3897 150.902 37.4101 150.804 37.4497C150.707 37.4894 150.618 37.5475 150.543 37.6208C150.469 37.6941 150.409 37.7811 150.369 37.8768C150.328 37.9726 150.308 38.0752 150.308 38.1789V56.8318C150.308 57.5069 149.635 58.0561 148.809 58.0561H140.444C140.257 57.5943 139.911 57.211 139.467 56.9721C139.023 56.7331 138.508 56.6535 138.01 56.747C137.513 56.8404 137.064 57.101 136.742 57.484C136.419 57.867 136.242 58.3483 136.242 58.8452C136.242 59.3421 136.419 59.8234 136.741 60.2064C137.064 60.5894 137.513 60.85 138.01 60.9435C138.508 61.037 139.023 60.9574 139.467 60.7185C139.911 60.4795 140.257 60.0962 140.444 59.6345H148.809C150.522 59.6345 151.917 58.3772 151.917 56.8318V38.1789C151.917 38.0752 151.896 37.9726 151.855 37.8768C151.815 37.7811 151.756 37.6941 151.681 37.6208C151.606 37.5475 151.518 37.4894 151.42 37.4497C151.322 37.4101 151.218 37.3897 151.112 37.3897Z" fill="#212C61"/>
<path d="M52.9099 17.5693C47.4531 12.2162 43.4005 6.28432 40.975 0.583233C40.9022 0.413247 40.7717 0.273232 40.6056 0.186977C40.4394 0.100722 40.248 0.0735486 40.0638 0.110074C39.8796 0.146599 39.7139 0.24457 39.595 0.38734C39.476 0.53011 39.4112 0.708871 39.4114 0.89325V30.8114H69.909C70.097 30.8116 70.2792 30.748 70.4247 30.6313C70.5703 30.5146 70.6701 30.3521 70.7073 30.1714C70.7446 29.9907 70.7169 29.8029 70.629 29.6399C70.541 29.477 70.3983 29.3489 70.225 29.2775C64.4135 26.8981 58.3668 22.9225 52.9099 17.5693Z" fill="#232C60"/>
<path d="M61.231 17.7533C65.9302 17.7533 69.7396 14.0163 69.7396 9.40637C69.7396 4.79648 65.9302 1.05942 61.231 1.05942C56.5318 1.05942 52.7224 4.79648 52.7224 9.40637C52.7224 14.0163 56.5318 17.7533 61.231 17.7533Z" fill="#232C60"/>
<path d="M21.2408 48.6367C26.6976 53.9899 30.7502 59.9218 33.1757 65.6228C33.2485 65.7928 33.379 65.9328 33.5452 66.0191C33.7113 66.1054 33.9027 66.1325 34.0869 66.096C34.2712 66.0595 34.4368 65.9615 34.5557 65.8187C34.6747 65.676 34.7395 65.4972 34.7393 65.3128V35.3947H4.24172C4.05377 35.3945 3.87154 35.4581 3.72601 35.5748C3.58047 35.6915 3.4806 35.854 3.44337 36.0347C3.40614 36.2154 3.43384 36.4032 3.52176 36.5662C3.60969 36.7291 3.75242 36.8572 3.92569 36.9286C9.73721 39.308 15.784 43.2836 21.2408 48.6367Z" fill="#232C60"/>
<path d="M13.0423 65.0263C17.7415 65.0263 21.5509 61.2893 21.5509 56.6794C21.5509 52.0695 17.7415 48.3324 13.0423 48.3324C8.34313 48.3324 4.53369 52.0695 4.53369 56.6794C4.53369 61.2893 8.34313 65.0263 13.0423 65.0263Z" fill="#232C60"/>
<path d="M53.0047 48.5438C58.4615 43.1906 64.5083 39.215 70.3198 36.8356C70.493 36.7642 70.6358 36.6361 70.7237 36.4732C70.8116 36.3102 70.8393 36.1224 70.8021 35.9417C70.7649 35.761 70.665 35.5985 70.5195 35.4818C70.3739 35.3651 70.1917 35.3015 70.0037 35.3017H39.5061V65.2198C39.5059 65.4042 39.5708 65.583 39.6897 65.7258C39.8086 65.8685 39.9743 65.9665 40.1585 66.003C40.3427 66.0395 40.5342 66.0124 40.7003 65.9261C40.8664 65.8399 40.997 65.6999 41.0698 65.5299C43.4952 59.8288 47.5478 53.8969 53.0047 48.5438Z" fill="#77B9E6"/>
<path d="M61.3272 65.0687C66.0264 65.0687 69.8358 61.3316 69.8358 56.7217C69.8358 52.1118 66.0264 48.3748 61.3272 48.3748C56.628 48.3748 52.8186 52.1118 52.8186 56.7217C52.8186 61.3316 56.628 65.0687 61.3272 65.0687Z" fill="#77B9E6"/>
<path d="M21.3355 17.4763C15.8787 22.8295 9.83194 26.8051 4.02042 29.1845C3.84714 29.2559 3.70442 29.384 3.61649 29.5469C3.52856 29.7099 3.50086 29.8977 3.5381 30.0784C3.57533 30.2591 3.6752 30.4216 3.82073 30.5383C3.96627 30.655 4.14849 30.7186 4.33644 30.7184H34.8341V0.800263C34.8343 0.615884 34.7694 0.437122 34.6505 0.294353C34.5316 0.151583 34.3659 0.0536128 34.1817 0.0170877C33.9975 -0.0194375 33.806 0.00773603 33.6399 0.0939909C33.4738 0.180246 33.3432 0.320261 33.2704 0.490247C30.845 6.19134 26.7924 12.1232 21.3355 17.4763Z" fill="#4DC1BC"/>
<path d="M13.192 17.8478C17.8911 17.8478 21.7006 14.1108 21.7006 9.50088C21.7006 4.89098 17.8911 1.15392 13.192 1.15392C8.49279 1.15392 4.68335 4.89098 4.68335 9.50088C4.68335 14.1108 8.49279 17.8478 13.192 17.8478Z" fill="#4DC1BC"/>
<path d="M30.6579 18.0011C30.4359 17.7791 30.1546 17.623 29.8463 17.5508C29.538 17.4786 29.2151 17.4932 28.9148 17.5929C28.6146 17.6926 28.3491 17.8733 28.1488 18.1144C27.9486 18.3555 27.8217 18.6471 27.7828 18.9557C27.7439 19.2643 27.7945 19.5775 27.9289 19.8591C28.0632 20.1408 28.2759 20.3796 28.5423 20.548C28.8088 20.7165 29.1183 20.8078 29.4353 20.8114C29.7523 20.8151 30.0639 20.7309 30.3343 20.5686L31.8418 22.0695C32.0678 22.2946 32.2465 22.5612 32.3676 22.854C32.4886 23.1468 32.5497 23.4601 32.5473 23.7761C32.5449 24.092 32.4791 24.4045 32.3537 24.6955C32.2282 24.9865 32.0455 25.2504 31.8161 25.4722C31.5867 25.694 31.3149 25.8692 31.0165 25.988C30.718 26.1067 30.3986 26.1666 30.0765 26.1643C29.7544 26.162 29.436 26.0974 29.1393 25.9743C28.8426 25.8513 28.5736 25.6721 28.3475 25.447L26.85 23.956C27.4367 23.2272 27.4205 22.5749 27.116 21.1041C27.0431 20.4869 26.2421 17.375 26.213 17.266C26.2043 17.2165 25.9809 16.054 24.3557 15.7554L24.3112 15.7503C24.24 15.7461 23.4911 15.6696 23.0356 15.6224C22.9943 15.6181 22.9526 15.6218 22.9129 15.6333C22.8731 15.6447 22.836 15.6638 22.8038 15.6894C22.7715 15.7149 22.7447 15.7465 22.7249 15.7822C22.7051 15.8179 22.6926 15.8571 22.6883 15.8976C22.6839 15.938 22.6878 15.9789 22.6995 16.0179C22.7113 16.0569 22.7308 16.0933 22.7569 16.1249C22.783 16.1565 22.8152 16.1827 22.8517 16.2021C22.8881 16.2214 22.9281 16.2336 22.9694 16.2378C23.9049 16.3347 24.172 16.3599 24.2553 16.3665C25.4195 16.5867 25.5857 17.343 25.5965 17.3945C25.7795 18.1046 26.2027 19.7833 26.3972 20.689L22.9084 24.0612C22.004 23.8606 20.2833 23.4165 19.543 23.2219C19.5104 23.215 18.7421 23.041 18.5349 21.8957C18.5294 21.815 18.5078 21.5542 18.4227 20.6324C18.4191 20.5919 18.4073 20.5525 18.3881 20.5164C18.3689 20.4804 18.3426 20.4484 18.3108 20.4223C18.279 20.3962 18.2422 20.3765 18.2027 20.3644C18.1631 20.3523 18.1214 20.3479 18.0801 20.3516C18.0388 20.3552 17.9987 20.3669 17.962 20.3858C17.9252 20.4047 17.8927 20.4305 17.8662 20.4618C17.8396 20.4931 17.8197 20.5292 17.8074 20.568C17.7951 20.6069 17.7907 20.6478 17.7946 20.6883C17.7947 20.6884 17.9011 21.8415 17.906 21.9304L17.9105 21.9851C18.1907 23.5838 19.3724 23.82 19.3992 23.824C19.5138 23.8543 21.8317 24.4644 22.8816 24.6893C22.887 24.6915 22.8929 24.6911 22.8984 24.693C23.0699 24.7295 23.21 24.7565 23.2951 24.7673C24.8756 25.1054 25.5345 25.1197 26.3271 24.4793L27.8155 25.9612C28.1104 26.2549 28.4614 26.4886 28.8484 26.6492C29.2354 26.8097 29.6508 26.8939 30.071 26.897C30.4911 26.9 30.9078 26.8219 31.2972 26.667C31.6866 26.512 32.041 26.2834 32.3403 25.9941C32.6396 25.7048 32.8779 25.3605 33.0416 24.9809C33.2052 24.6012 33.2911 24.1937 33.2942 23.7815C33.2973 23.3693 33.2176 22.9606 33.0597 22.5786C32.9018 22.1966 32.6687 21.8489 32.3738 21.5553L30.8703 20.0583C31.0784 19.7427 31.1707 19.3671 31.1321 18.9931C31.0935 18.6192 30.9263 18.2693 30.6579 18.0011ZM23.6528 24.2102L26.538 21.4215C26.8161 22.8294 26.7451 23.2059 26.1191 23.8346C25.4722 24.4363 25.0878 24.5029 23.6528 24.2102ZM30.1161 19.8167C29.9839 19.9445 29.8161 20.0309 29.6339 20.0651C29.4516 20.0993 29.2632 20.0797 29.0923 20.0088C28.9214 19.9379 28.7758 19.8189 28.6739 19.6668C28.572 19.5147 28.5183 19.3364 28.5197 19.1544C28.521 18.9724 28.5774 18.7949 28.6816 18.6443C28.7858 18.4938 28.9332 18.3769 29.1051 18.3085C29.2771 18.2401 29.4658 18.2232 29.6475 18.26C29.8292 18.2969 29.9957 18.3857 30.1259 18.5154C30.3002 18.6894 30.3971 18.9241 30.3952 19.168C30.3934 19.412 30.293 19.6453 30.1161 19.8167Z" fill="#232C60"/>
<path d="M43.3165 48.6761C43.5385 48.8981 43.8198 49.0542 44.1282 49.1264C44.4365 49.1986 44.7594 49.184 45.0596 49.0843C45.3599 48.9846 45.6254 48.8039 45.8257 48.5628C46.0259 48.3217 46.1528 48.0301 46.1917 47.7215C46.2306 47.4128 46.1799 47.0997 46.0456 46.818C45.9112 46.5364 45.6986 46.2976 45.4321 46.1292C45.1657 45.9607 44.8562 45.8694 44.5392 45.8658C44.2222 45.8621 43.9106 45.9463 43.6402 46.1086L42.1327 44.6077C41.6761 44.1531 41.4223 43.5392 41.4272 42.9011C41.432 42.263 41.695 41.6529 42.1584 41.205C42.6217 40.7571 43.2475 40.5082 43.898 40.5129C44.5484 40.5176 45.1704 40.7756 45.6269 41.2302L47.1244 42.7212C46.5378 43.45 46.5539 44.1023 46.8585 45.5731C46.9314 46.1903 47.7324 49.3022 47.7614 49.4112C47.7702 49.4607 47.9936 50.6232 49.6188 50.9218L49.6633 50.9269C49.7344 50.9311 50.4834 51.0076 50.9389 51.0548C50.9801 51.0591 51.0218 51.0554 51.0616 51.044C51.1014 51.0325 51.1385 51.0134 51.1707 50.9878C51.203 50.9623 51.2298 50.9307 51.2496 50.895C51.2694 50.8593 51.2819 50.8201 51.2862 50.7796C51.2906 50.7392 51.2867 50.6983 51.275 50.6593C51.2632 50.6203 51.2437 50.5839 51.2176 50.5523C51.1915 50.5207 51.1593 50.4945 51.1228 50.4751C51.0863 50.4557 51.0463 50.4436 51.0051 50.4394C50.0696 50.3425 49.8025 50.3173 49.7192 50.3107C48.5549 50.0905 48.3888 49.3342 48.378 49.2827C48.195 48.5726 47.7717 46.8939 47.5773 45.9882L51.0661 42.616C51.9704 42.8166 53.6912 43.2607 54.4315 43.4552C54.4641 43.4622 55.2324 43.6362 55.4396 44.7815C55.4451 44.8622 55.4666 45.123 55.5517 46.0448C55.5555 46.0852 55.5673 46.1246 55.5865 46.1605C55.6058 46.1965 55.632 46.2284 55.6638 46.2545C55.6956 46.2805 55.7324 46.3001 55.7719 46.3122C55.8114 46.3243 55.853 46.3286 55.8943 46.325C55.9355 46.3213 55.9756 46.3097 56.0123 46.2908C56.049 46.272 56.0815 46.2462 56.108 46.215C56.1345 46.1838 56.1545 46.1477 56.1669 46.109C56.1792 46.0702 56.1836 46.0294 56.1799 45.9889C56.1798 45.9888 56.0733 44.8357 56.0685 44.7468L56.064 44.6921C55.7838 43.0934 54.6021 42.8572 54.5752 42.8532C54.4606 42.8229 52.1428 42.2128 51.0929 41.9879C51.0875 41.9857 51.0816 41.9861 51.0761 41.9842C50.9046 41.9477 50.7645 41.9207 50.6794 41.9099C49.0989 41.5717 48.44 41.5575 47.6474 42.1979L46.159 40.716C45.5634 40.123 44.7521 39.7864 43.9035 39.7802C43.0549 39.7741 42.2386 40.0988 41.6341 40.6831C41.0297 41.2674 40.6865 42.0633 40.6803 42.8957C40.674 43.7282 41.005 44.529 41.6006 45.1219L43.1042 46.6189C42.8961 46.9345 42.8038 47.3101 42.8424 47.6841C42.881 48.058 43.0482 48.4079 43.3165 48.6761ZM50.3216 42.467L47.4365 45.2557C47.1583 43.8478 47.2294 43.4713 47.8554 42.8426C48.5023 42.2409 48.8866 42.1743 50.3216 42.467ZM43.8584 46.8605C43.9906 46.7327 44.1584 46.6463 44.3406 46.6121C44.5228 46.5779 44.7113 46.5975 44.8822 46.6684C45.053 46.7393 45.1986 46.8583 45.3006 47.0104C45.4025 47.1625 45.4562 47.3408 45.4548 47.5228C45.4534 47.7048 45.3971 47.8823 45.2929 48.0329C45.1886 48.1835 45.0412 48.3003 44.8693 48.3687C44.6974 48.4371 44.5086 48.454 44.327 48.4172C44.1453 48.3803 43.9788 48.2915 43.8486 48.1618C43.6742 47.9878 43.5774 47.7531 43.5792 47.5092C43.5811 47.2652 43.6815 47.0319 43.8584 46.8605Z" fill="#232C60"/>
<path d="M25.5755 44.5133C25.576 49.4502 32.8152 49.4502 32.8158 44.5134H32.8209L32.8209 37.4106H32.8158V37.41L25.5755 37.41V37.4107C20.5491 37.4155 20.5491 44.5085 25.5755 44.5133Z" fill="#D62028"/>
<path d="M48.7091 21.6947C48.7085 16.7578 41.4693 16.7578 41.4687 21.6946H41.4636L41.4636 28.7974H41.4687V28.798L48.7091 28.798V28.7973C53.7355 28.7925 53.7355 21.6995 48.7091 21.6947Z" fill="#D62028"/>
</g>
<defs>
<clipPath id="clip0_110_280">
<rect width="165" height="80.9627" fill="white"/>
</clipPath>
</defs>
</svg>
