<svg width="11" height="34" viewBox="0 0 11 34" fill="none" xmlns="http://www.w3.org/2000/svg">
<path fill-rule="evenodd" clip-rule="evenodd" d="M10.0599 0.88255C10.3556 1.03108 10.5804 1.29082 10.6849 1.60481C10.7894 1.9188 10.7651 2.26142 10.6174 2.55755L3.3999 17L10.6199 31.4401C10.6949 31.587 10.7402 31.7473 10.753 31.9117C10.7658 32.0762 10.7459 32.2416 10.6945 32.3983C10.643 32.5551 10.5611 32.7001 10.4534 32.825C10.3456 32.95 10.2142 33.0523 10.0668 33.1262C9.91927 33.2001 9.75861 33.2441 9.59405 33.2557C9.42948 33.2672 9.26427 33.246 9.10792 33.1934C8.95158 33.1407 8.8072 33.0577 8.6831 32.949C8.55901 32.8403 8.45766 32.7081 8.3849 32.56L0.8849 17.56C0.797796 17.3862 0.752441 17.1945 0.752441 17C0.752441 16.8056 0.797796 16.6139 0.8849 16.4401L8.3849 1.44005C8.53343 1.14433 8.79317 0.919576 9.10716 0.815069C9.42115 0.710561 9.76377 0.734828 10.0599 0.88255Z" fill="#8A8A8A"/>
</svg>
