<svg width="40" height="40" viewBox="0 0 40 40" fill="none" xmlns="http://www.w3.org/2000/svg">
<path d="M23.3645 9.10669C23.28 9.1573 23.2063 9.22406 23.1476 9.30317C23.0888 9.38228 23.0463 9.47218 23.0223 9.56774C22.9984 9.66329 22.9935 9.76263 23.0079 9.86008C23.0224 9.95753 23.0559 10.0512 23.1065 10.1357L26.9255 16.5002H13.0745L16.895 10.1357C16.9972 9.96502 17.0275 9.76073 16.9791 9.56775C16.9307 9.37478 16.8077 9.20893 16.637 9.10669C16.4663 9.00444 16.262 8.97419 16.0691 9.02257C15.8761 9.07096 15.7102 9.19402 15.608 9.36469L11.3255 16.5002H9.5C9.10218 16.5002 8.72064 16.6582 8.43934 16.9395C8.15804 17.2208 8 17.6024 8 18.0002V19.5002C8 19.898 8.15804 20.2795 8.43934 20.5608C8.72064 20.8421 9.10218 21.0002 9.5 21.0002V27.7502C9.5 28.7447 9.89509 29.6986 10.5983 30.4018C11.3016 31.1051 12.2554 31.5002 13.25 31.5002H26.75C27.7446 31.5002 28.6984 31.1051 29.4017 30.4018C30.1049 29.6986 30.5 28.7447 30.5 27.7502V21.0002C30.8978 21.0002 31.2794 20.8421 31.5607 20.5608C31.842 20.2795 32 19.898 32 19.5002V18.0002C32 17.6024 31.842 17.2208 31.5607 16.9395C31.2794 16.6582 30.8978 16.5002 30.5 16.5002H28.6745L24.395 9.36469C24.3444 9.28017 24.2776 9.20645 24.1985 9.14774C24.1194 9.08903 24.0295 9.04648 23.9339 9.02252C23.8384 8.99856 23.7391 8.99366 23.6416 9.0081C23.5442 9.02254 23.4505 9.05604 23.366 9.10669H23.3645ZM29 21.0002V27.7502C29 28.3469 28.7629 28.9192 28.341 29.3412C27.919 29.7631 27.3467 30.0002 26.75 30.0002H13.25C12.6533 30.0002 12.081 29.7631 11.659 29.3412C11.2371 28.9192 11 28.3469 11 27.7502V21.0002H29ZM30.5 18.0002V19.5002H9.5V18.0002H30.5ZM26 22.5002C25.8011 22.5002 25.6103 22.5792 25.4697 22.7199C25.329 22.8605 25.25 23.0513 25.25 23.2502V27.7502C25.25 27.9491 25.329 28.1399 25.4697 28.2805C25.6103 28.4212 25.8011 28.5002 26 28.5002C26.1989 28.5002 26.3897 28.4212 26.5303 28.2805C26.671 28.1399 26.75 27.9491 26.75 27.7502V23.2502C26.75 23.0513 26.671 22.8605 26.5303 22.7199C26.3897 22.5792 26.1989 22.5002 26 22.5002ZM23 22.5002C22.8011 22.5002 22.6103 22.5792 22.4697 22.7199C22.329 22.8605 22.25 23.0513 22.25 23.2502V27.7502C22.25 27.9491 22.329 28.1399 22.4697 28.2805C22.6103 28.4212 22.8011 28.5002 23 28.5002C23.1989 28.5002 23.3897 28.4212 23.5303 28.2805C23.671 28.1399 23.75 27.9491 23.75 27.7502V23.2502C23.75 23.0513 23.671 22.8605 23.5303 22.7199C23.3897 22.5792 23.1989 22.5002 23 22.5002V22.5002ZM20 22.5002C19.8011 22.5002 19.6103 22.5792 19.4697 22.7199C19.329 22.8605 19.25 23.0513 19.25 23.2502V27.7502C19.25 27.9491 19.329 28.1399 19.4697 28.2805C19.6103 28.4212 19.8011 28.5002 20 28.5002C20.1989 28.5002 20.3897 28.4212 20.5303 28.2805C20.671 28.1399 20.75 27.9491 20.75 27.7502V23.2502C20.75 23.0513 20.671 22.8605 20.5303 22.7199C20.3897 22.5792 20.1989 22.5002 20 22.5002V22.5002ZM17 22.5002C16.8011 22.5002 16.6103 22.5792 16.4697 22.7199C16.329 22.8605 16.25 23.0513 16.25 23.2502V27.7502C16.25 27.9491 16.329 28.1399 16.4697 28.2805C16.6103 28.4212 16.8011 28.5002 17 28.5002C17.1989 28.5002 17.3897 28.4212 17.5303 28.2805C17.671 28.1399 17.75 27.9491 17.75 27.7502V23.2502C17.75 23.0513 17.671 22.8605 17.5303 22.7199C17.3897 22.5792 17.1989 22.5002 17 22.5002ZM14 22.5002C13.8011 22.5002 13.6103 22.5792 13.4697 22.7199C13.329 22.8605 13.25 23.0513 13.25 23.2502V27.7502C13.25 27.9491 13.329 28.1399 13.4697 28.2805C13.6103 28.4212 13.8011 28.5002 14 28.5002C14.1989 28.5002 14.3897 28.4212 14.5303 28.2805C14.671 28.1399 14.75 27.9491 14.75 27.7502V23.2502C14.75 23.0513 14.671 22.8605 14.5303 22.7199C14.3897 22.5792 14.1989 22.5002 14 22.5002Z" fill="#6E6E6E"/>
</svg>
