<svg width="40" height="40" viewBox="0 0 40 40" fill="none" xmlns="http://www.w3.org/2000/svg">
<path d="M25.6137 23.5126C27.0661 21.5307 27.7166 19.0735 27.4351 16.6326C27.1536 14.1917 25.9608 11.9471 24.0954 10.3478C22.23 8.74857 19.8295 7.91263 17.3742 8.00724C14.919 8.10184 12.59 9.12002 10.8531 10.8581C9.11633 12.5961 8.09982 14.9259 8.00697 17.3812C7.91412 19.8366 8.75178 22.2364 10.3524 24.1007C11.953 25.9649 14.1984 27.1561 16.6396 27.4359C19.0807 27.7156 21.5374 27.0634 23.5183 25.6096H23.5168C23.5618 25.6696 23.6098 25.7266 23.6638 25.7821L29.4385 31.5568C29.7198 31.8383 30.1013 31.9965 30.4992 31.9966C30.8971 31.9968 31.2788 31.8388 31.5602 31.5576C31.8417 31.2763 31.9999 30.8948 32 30.4969C32.0001 30.099 31.8422 29.7174 31.561 29.4359L25.7862 23.6611C25.7326 23.6068 25.6749 23.5567 25.6137 23.5111V23.5126ZM26.0007 17.7469C26.0007 18.8302 25.7873 19.903 25.3727 20.9039C24.9581 21.9048 24.3504 22.8142 23.5844 23.5803C22.8183 24.3463 21.9089 24.954 20.908 25.3686C19.9071 25.7832 18.8343 25.9965 17.751 25.9965C16.6676 25.9965 15.5949 25.7832 14.594 25.3686C13.5931 24.954 12.6836 24.3463 11.9176 23.5803C11.1515 22.8142 10.5438 21.9048 10.1293 20.9039C9.71468 19.903 9.50129 18.8302 9.50129 17.7469C9.50129 15.5589 10.3705 13.4606 11.9176 11.9134C13.4647 10.3663 15.563 9.49717 17.751 9.49717C19.9389 9.49717 22.0373 10.3663 23.5844 11.9134C25.1315 13.4606 26.0007 15.5589 26.0007 17.7469V17.7469Z" fill="#6E6E6E"/>
</svg>
