<svg width="295" height="337" viewBox="0 0 295 337" fill="none" xmlns="http://www.w3.org/2000/svg">
<path d="M217.622 78.5378C224.285 75.1243 225.531 64.206 220.404 54.151C215.277 44.0961 205.72 38.7121 199.057 42.1256C192.394 45.539 191.148 56.4574 196.275 66.5123C201.401 76.5673 210.959 81.9512 217.622 78.5378Z" fill="#B7F5F5"/>
<path d="M174.97 63.2096C197.629 65.8692 218.881 91.9585 207.622 114.412C206.92 115.777 206.088 117.072 205.138 118.278C204.583 112.16 203.989 106.849 202.371 101.976C197.453 86.3508 185.657 75.5139 174.97 63.2095L174.97 63.2096Z" fill="#B7F5F5"/>
<path d="M156.191 57.3579C140.478 50.6101 104.132 36.2397 105.87 16.6835C104.63 16.2443 98.4673 48.0036 139.246 71.7788C160.409 84.1172 186.617 103.726 192.515 139.926C192.396 139.623 227.274 104.101 158.773 58.7481" fill="#B7F5F5"/>
<path d="M158.773 58.7481C157.948 58.221 157.085 57.7563 156.191 57.3578L158.773 58.7481Z" fill="#B7F5F5"/>
<path d="M171.409 111.508C171.409 111.508 177.025 117.158 161.699 136.109C161.505 136.362 135.57 165.949 177.316 175.963C177.48 175.781 243.623 185.802 237.684 208.507C237.367 209.043 254.801 185.446 221.88 166.38C221.747 166.491 204.964 158.671 204.964 158.671C204.964 158.671 184.841 148.431 183.865 130.424C183.878 130.008 182.198 116.293 171.409 111.508Z" fill="#B7F5F5"/>
<path d="M217.755 192.066C222.217 193.238 226.201 195.778 229.149 199.329C232.096 202.881 233.861 207.268 234.196 211.877C210.974 220.743 192.035 238.209 181.303 260.658C178.811 251.787 179.064 242.364 182.028 233.632C184.992 224.9 190.528 217.269 197.905 211.744C206.1 207.002 212.937 200.224 217.755 192.066L217.755 192.066Z" fill="#B7F5F5"/>
<path d="M101.041 300.801C101.041 300.801 94.9786 233.021 121.005 210.187C128.932 205.777 135.896 199.819 141.484 192.667C147.072 185.515 151.17 177.314 153.536 168.551C154.783 169.64 158.47 173.458 167.629 177.797C176.74 182.114 182.375 185.861 184.218 183.101C171.761 201.752 172.632 200.392 162.482 207.689C150.23 216.497 141.282 223.155 139.502 224.317C106.24 246.019 105.666 301.508 101.041 300.801" fill="#B7F5F5"/>
</svg>
