<svg width="245" height="492" viewBox="0 0 245 492" fill="none" xmlns="http://www.w3.org/2000/svg">
<path d="M202.721 107.487C214.209 101.593 216.364 82.7568 207.534 65.414C198.703 48.0713 182.232 38.7899 170.743 44.6834C159.255 50.5769 157.1 69.4136 165.93 86.7563C174.76 104.099 191.232 113.38 202.721 107.487Z" fill="#B7F5F5"/>
<path d="M129.207 81.0737C168.265 85.6458 204.882 130.639 185.456 169.383C184.245 171.739 182.81 173.973 181.171 176.054C180.221 165.499 179.2 156.339 176.414 147.932C167.948 120.98 147.62 102.293 129.207 81.0737Z" fill="#B7F5F5"/>
<path d="M96.8383 70.9919C69.756 59.362 7.1118 34.5966 10.1217 0.857927C7.98506 0.101197 -2.66141 54.8952 67.6183 95.8823C104.091 117.153 149.254 150.963 159.395 213.409C159.191 212.886 219.341 151.58 101.288 73.3884" fill="#B7F5F5"/>
<path d="M101.288 73.3884C99.8667 72.4797 98.3792 71.6787 96.8383 70.9919L101.288 73.3884Z" fill="#B7F5F5"/>
<path d="M123.034 164.398C123.034 164.398 132.71 174.142 106.278 206.846C105.943 207.282 61.2144 258.344 133.171 275.588C133.452 275.275 247.466 292.517 237.212 331.689C236.664 332.614 266.735 291.894 209.998 259.025C209.769 259.216 180.843 245.739 180.843 245.739C180.843 245.739 146.162 228.086 144.493 197.023C144.515 196.306 141.628 172.645 123.034 164.398Z" fill="#B7F5F5"/>
<path d="M202.869 303.341C210.561 305.36 217.426 309.738 222.505 315.863C227.584 321.988 230.623 329.555 231.197 337.505C191.16 352.818 158.5 382.963 139.983 421.698C135.695 406.396 136.137 390.14 141.253 375.074C146.368 360.008 155.916 346.838 168.638 337.302C182.767 329.115 194.558 317.418 202.869 303.341Z" fill="#B7F5F5"/>
<path d="M1.59657 491.008C1.59657 491.008 -8.80625 374.081 36.076 334.671C49.7432 327.057 61.7519 316.774 71.3899 304.432C81.0278 292.089 88.0988 277.939 92.1835 262.819C94.3319 264.697 100.685 271.281 116.47 278.76C132.174 286.2 141.884 292.661 145.064 287.899C123.577 320.084 125.078 317.736 107.576 330.332C86.4498 345.536 71.0196 357.029 67.9506 359.034C10.5979 396.497 9.56846 492.225 1.59657 491.008Z" fill="#B7F5F5"/>
</svg>
