<svg width="195" height="203" viewBox="0 0 195 203" fill="none" xmlns="http://www.w3.org/2000/svg">
<path d="M124.179 104.142C129.483 106.526 134.588 109.332 139.444 112.531C139.444 112.531 133.106 122.053 129.451 156.055C127.842 171.017 127.934 141.712 127.317 166.611C127.317 166.611 123.325 173.024 98.0011 173.024C72.6768 173.024 68.6849 166.611 68.6849 166.611C68.0506 141.025 68.189 171.418 66.5233 156.295C62.8843 123.257 56.5581 112.531 56.5581 112.531C61.4142 109.332 66.5187 106.526 71.8227 104.142H124.179Z" fill="#E9E5EA"/>
<path d="M82.7219 120.82L73.6672 136.975L93.4043 157.313L82.7219 120.82Z" fill="white"/>
<path d="M74.8297 104.142L68.1624 128.118L84.9115 132.63L74.8297 104.142Z" fill="white"/>
<path d="M127.317 166.611C127.951 141.025 127.785 171.178 129.451 156.055C133.09 123.016 139.444 112.531 139.444 112.531C134.588 109.332 129.483 106.526 124.179 104.142H98.001V173.024C123.325 173.024 127.317 166.611 127.317 166.611Z" fill="#CECBCF"/>
<path d="M113.047 120.82L122.102 136.975L102.365 157.313L113.047 120.82Z" fill="white"/>
<path d="M120.94 104.142L127.607 128.118L110.858 132.63L120.94 104.142Z" fill="white"/>
<path d="M118.796 110.096L97.7694 169.999L77.1587 110.096L97.7694 101.697L118.796 110.096Z" fill="#77B2B5"/>
<path d="M105.371 104.734L97.8849 112.617L90.3757 104.71L77.1587 110.096L79.4031 116.619L86.0181 125.305L92.9174 118.07C93.0033 119.34 93.5611 120.532 94.4812 121.412C95.4012 122.292 96.617 122.795 97.8893 122.823C99.1617 122.852 100.399 122.403 101.357 121.565C102.315 120.727 102.926 119.561 103.068 118.296L109.752 125.305L116.625 116.28L118.796 110.096L105.371 104.734Z" fill="#679EA1"/>
<path d="M93.1028 156.438L97.7692 169.999L102.961 155.205L99.7562 116.062L96.198 116.052L93.1028 156.438Z" fill="#1A5670"/>
<path d="M128.226 115.106C127.967 107.191 124.647 99.6851 118.966 94.1692C113.285 88.6532 105.686 85.5575 97.7688 85.5338H97.7687C89.6946 85.5574 81.9579 88.7763 76.2487 94.4872C70.5394 100.198 67.3215 107.937 67.2979 116.014V129.915" stroke="#585759" stroke-width="2" stroke-linecap="round" stroke-linejoin="round"/>
<path d="M116.466 105.68L98.0012 115.199L79.0715 105.68L85.2576 70.1371H110.28L116.466 105.68Z" fill="#FFCC92"/>
<path d="M97.8853 108.568L81.784 90.0972L79.0715 105.68L98.0012 115.199L116.466 105.68L113.755 90.1007L97.8853 108.568Z" fill="#E8B376"/>
<path d="M103.102 115.198C103.102 116.208 102.803 117.194 102.243 118.033C101.682 118.873 100.885 119.527 99.9533 119.913C99.0212 120.299 97.9955 120.4 97.006 120.203C96.0164 120.006 95.1075 119.52 94.394 118.807C93.6806 118.093 93.1948 117.184 92.9979 116.194C92.8011 115.204 92.9021 114.178 93.2882 113.246C93.6743 112.313 94.3282 111.516 95.1671 110.956C96.006 110.395 96.9923 110.096 98.0012 110.096C99.3541 110.096 100.652 110.633 101.608 111.59C102.565 112.547 103.102 113.845 103.102 115.198Z" fill="#1E6482"/>
<path d="M110.28 70.1371H85.2573L82.2639 87.3365C84.1473 89.5987 86.1692 91.7419 88.3179 93.7537C90.8176 95.8441 96.7378 95.7076 96.7378 95.7076C96.7378 95.7076 102.658 95.8441 105.158 93.7537C107.918 91.1128 110.512 88.3039 112.926 85.3432L110.28 70.1371Z" fill="#E8B376"/>
<path d="M74.7726 49.6613C75.8522 55.1533 73.8521 60.1708 70.3052 60.8685C66.7584 61.5661 62.6033 55.6212 61.5237 50.1293C60.4442 44.6374 62.8489 41.6782 66.3958 40.9805C69.9426 40.2829 73.693 44.1695 74.7726 49.6613Z" fill="#E8B376"/>
<path d="M121.694 49.6613C120.614 55.1533 122.614 60.1708 126.161 60.8685C129.708 61.5661 133.863 55.6212 134.942 50.1293C136.022 44.6374 133.617 41.6782 130.07 40.9805C126.524 40.2829 122.773 44.1695 121.694 49.6613Z" fill="#E8B376"/>
<path d="M98.0011 9.05688C114.869 9.05688 128.302 25.2565 128.302 45.2397C128.302 45.2397 125.907 62.4861 121.911 71.5685C121.911 71.5685 110.185 86.158 106.421 89.3057C103.921 91.3961 98.0011 91.2596 98.0011 91.2596C98.0011 91.2596 92.0809 91.3961 89.5812 89.3057C85.817 86.158 74.0908 71.5685 74.0908 71.5685C70.0954 62.4861 67.7002 45.2397 67.7002 45.2397C67.7002 25.2565 81.1326 9.05688 98.0011 9.05688Z" fill="#FFCC92"/>
<path d="M74.499 16.9535C70.6334 22.4679 68.1488 28.8306 67.2543 35.5059C66.3599 42.1812 67.0818 48.9738 69.3593 55.3118C69.3593 55.3118 70.6898 37.3855 84.1855 28.6289L74.499 16.9535Z" fill="#2A333D"/>
<path d="M126.541 55.3116C126.541 55.3116 125.21 37.3853 111.715 28.6287C111.715 28.6287 80.3464 48.331 57.0024 30.8179C57.0024 30.8179 64.8146 28.0915 71.2277 17.3182C80.4817 1.77229 108.109 -2.38405 121.401 16.9533C125.267 22.4677 127.752 28.8304 128.646 35.5057C129.54 42.181 128.818 48.9736 126.541 55.3116Z" fill="#3F4C5B"/>
<path d="M81.3366 92.6675L98.0012 110.216L86.0178 122.781L71.8225 104.142L81.3366 92.6675Z" fill="#8FCCCF"/>
<path d="M114.433 92.6675L97.7693 110.216L109.752 122.781L123.947 104.142L114.433 92.6675Z" fill="#8FCCCF"/>
<path d="M128.709 137.066L132.294 129.419C133.571 126.691 133.713 123.568 132.689 120.736C131.665 117.904 129.558 115.595 126.832 114.316C124.106 113.037 120.984 112.894 118.152 113.917C115.32 114.941 113.011 117.047 111.731 119.773L109.065 125.461" stroke="#585759" stroke-width="2" stroke-linecap="round" stroke-linejoin="round"/>
<path d="M106.471 129.223C106.217 129.056 106.04 128.795 105.978 128.497C105.916 128.199 105.974 127.889 106.14 127.634L108.105 124.634C108.272 124.38 108.533 124.203 108.831 124.141C109.129 124.079 109.439 124.137 109.694 124.303C109.947 124.47 110.125 124.731 110.187 125.029C110.249 125.327 110.19 125.637 110.025 125.892L108.059 128.892C107.892 129.146 107.631 129.323 107.333 129.385C107.036 129.447 106.726 129.389 106.471 129.223Z" fill="#B9B6BA"/>
<path d="M109.039 125.302L110.801 126.457C111.187 126.712 111.457 127.109 111.551 127.562C111.646 128.015 111.557 128.487 111.305 128.875V128.875C111.05 129.261 110.653 129.531 110.2 129.625C109.747 129.719 109.276 129.631 108.888 129.378L107.126 128.223L109.039 125.302Z" fill="#848285"/>
<path d="M129.378 135.976C129.632 136.143 129.809 136.404 129.871 136.702C129.933 137 129.875 137.31 129.709 137.565L127.744 140.565C127.576 140.819 127.315 140.996 127.018 141.058C126.72 141.12 126.41 141.062 126.155 140.896C125.901 140.728 125.724 140.467 125.662 140.169C125.6 139.872 125.658 139.561 125.824 139.307L127.789 136.307C127.957 136.053 128.218 135.875 128.516 135.813C128.813 135.751 129.123 135.81 129.378 135.976Z" fill="#B9B6BA"/>
<path d="M126.81 139.896L125.048 138.741C124.662 138.486 124.392 138.089 124.298 137.636C124.204 137.183 124.292 136.711 124.545 136.324C124.799 135.937 125.196 135.668 125.649 135.573C126.102 135.479 126.574 135.568 126.961 135.82L128.724 136.975L126.81 139.896Z" fill="#848285"/>
<path d="M56.5581 112.531C56.5581 112.531 43 118.04 43 137.551C43 164.028 46.5447 175.251 50.4123 178.791C55.6535 183.588 61.3999 184.342 65.8796 171.57C69.4861 161.287 61.7296 118.386 56.5581 112.531Z" fill="white"/>
<path d="M74.5173 133.659C75.0853 130.149 72.7017 126.844 69.1934 126.276C65.6851 125.707 62.3806 128.092 61.8126 131.601C61.2446 135.11 63.6282 138.416 67.1366 138.984C70.6449 139.552 73.9494 137.168 74.5173 133.659Z" fill="#848285"/>
<path d="M68.1649 136.184C70.1272 136.184 71.7179 134.593 71.7179 132.63C71.7179 130.667 70.1272 129.076 68.1649 129.076C66.2026 129.076 64.6118 130.667 64.6118 132.63C64.6118 134.593 66.2026 136.184 68.1649 136.184Z" fill="#B9B6BA"/>
<path d="M139.442 112.531C139.442 112.531 153 118.04 153 137.551C153 164.028 149.455 175.251 145.588 178.791C140.346 183.588 134.843 183.01 130.52 173.626C126.65 165.225 130.157 128.165 139.442 112.531Z" fill="white"/>
<path d="M57.3591 181.834C57.3591 181.834 96.4645 181.834 122.822 164.351L117.836 150.154C117.836 150.154 85.9603 150.54 65.6514 156.309C65.6514 156.309 70.0499 177.228 57.3591 181.834Z" fill="white"/>
<path d="M119.182 153.989C114.615 152.811 109.917 151.685 105.411 150.654C96.2566 151.198 83.5435 152.327 72.5129 154.64C81.3622 162.708 91.4559 169.294 102.404 174.142C109.597 171.756 116.458 168.466 122.822 164.352L119.182 153.989Z" fill="#E9E5EA"/>
<path d="M83.0972 152.915L82.1767 145.91C82.1767 145.91 72.6958 143.243 68.1939 150.154C67.0147 151.976 66.4473 154.128 66.5741 156.295C72.0047 154.82 77.5235 153.691 83.0972 152.915Z" fill="#FFCC92"/>
<path d="M123.223 148.894C122.674 148.74 122.209 148.375 121.929 147.878C121.649 147.382 121.576 146.795 121.727 146.245L123.102 141.303C123.256 140.754 123.621 140.288 124.117 140.008C124.613 139.728 125.2 139.655 125.75 139.806H125.75C126.299 139.961 126.764 140.326 127.044 140.822C127.324 141.319 127.397 141.906 127.246 142.455L125.871 147.398C125.717 147.947 125.352 148.412 124.856 148.692C124.36 148.973 123.773 149.045 123.223 148.894Z" fill="#FFCC92"/>
<path d="M125.636 158.668V158.668C123.866 159.608 121.796 159.808 119.879 159.226C117.961 158.644 116.352 157.326 115.402 155.561C113.442 151.891 115.122 148.879 118.791 146.918C122.459 144.957 126.783 144.761 128.743 148.431V148.431C129.682 150.202 129.882 152.272 129.3 154.191C128.718 156.109 127.401 157.718 125.636 158.668Z" fill="#FFCC92"/>
<path d="M117.836 150.154C117.547 149.554 117.508 148.864 117.727 148.235C117.945 147.607 118.404 147.09 119.002 146.798L134.023 138.902C134.623 138.614 135.313 138.575 135.942 138.793C136.57 139.012 137.087 139.47 137.379 140.068C137.667 140.668 137.706 141.358 137.488 141.987C137.269 142.616 136.811 143.133 136.213 143.425L121.191 151.32C120.591 151.609 119.902 151.648 119.273 151.429C118.644 151.211 118.128 150.752 117.836 150.154Z" fill="#FFCC92"/>
<path d="M123.193 151.783C122.905 151.183 122.866 150.493 123.084 149.864C123.303 149.235 123.761 148.718 124.359 148.426L133.765 143.884C134.365 143.596 135.055 143.557 135.683 143.775C136.312 143.994 136.829 144.452 137.12 145.05C137.409 145.651 137.448 146.34 137.229 146.969C137.011 147.598 136.553 148.115 135.954 148.407L126.549 152.949C125.949 153.237 125.259 153.276 124.631 153.058C124.002 152.839 123.485 152.381 123.193 151.783Z" fill="#FFCC92"/>
<path d="M122.061 155.926C121.738 155.344 121.658 154.658 121.839 154.017C122.019 153.376 122.446 152.833 123.026 152.506L132.145 147.413C132.727 147.09 133.413 147.009 134.054 147.19C134.694 147.371 135.237 147.798 135.564 148.378C135.887 148.96 135.967 149.646 135.787 150.287C135.606 150.927 135.179 151.471 134.599 151.798L125.48 156.891C124.898 157.214 124.212 157.294 123.572 157.114C122.931 156.933 122.388 156.506 122.061 155.926Z" fill="#FFCC92"/>
<path d="M119.145 160.195C118.771 159.644 118.63 158.968 118.753 158.314C118.876 157.659 119.253 157.08 119.801 156.703L128.43 150.817C128.981 150.443 129.657 150.302 130.311 150.424C130.965 150.547 131.544 150.924 131.921 151.473V151.473C132.295 152.023 132.436 152.7 132.313 153.354C132.19 154.008 131.814 154.587 131.265 154.965L122.636 160.851C122.086 161.225 121.41 161.366 120.756 161.243C120.101 161.12 119.523 160.743 119.145 160.195Z" fill="#FFCC92"/>
<path d="M138.673 181.834C138.673 181.834 107.089 182.997 75.5039 154.202L82.504 145.111C82.504 145.111 110.014 150.286 130.323 156.054C130.323 156.054 125.982 177.228 138.673 181.834Z" fill="white"/>
</svg>
